<svg xmlns="http://www.w3.org/2000/svg" width="127.776" height="134.619" viewBox="0 0 127.776 134.619">
  <g id="biology-svgrepo-com" transform="translate(-12.2)">
    <g id="Group_42" data-name="Group 42" transform="translate(12.2 0)">
      <g id="Group_41" data-name="Group 41" transform="translate(0 0)">
        <path id="Path_42" data-name="Path 42" d="M27.937,57.332a2.8,2.8,0,0,0,2.428,1.4H61.1a2.8,2.8,0,0,0,2.428-1.4L78.889,30.77a2.8,2.8,0,0,0,0-2.808L63.527,1.4A2.8,2.8,0,0,0,61.1,0H30.365a2.8,2.8,0,0,0-2.428,1.4L12.576,27.961a2.805,2.805,0,0,0,0,2.808ZM31.983,5.609h27.5l13.74,23.757L59.482,53.123h-27.5L18.244,29.366Z" transform="translate(-12.2 0)"/>
        <path id="Path_43" data-name="Path 43" d="M295.355,163.255l-15.361-26.561a2.8,2.8,0,0,0-2.428-1.4H246.833a2.8,2.8,0,0,0-2.428,1.4l-15.362,26.561a2.8,2.8,0,0,0,0,2.808L244.4,192.624a2.8,2.8,0,0,0,2.428,1.4h30.735a2.8,2.8,0,0,0,2.428-1.4l15.361-26.561A2.8,2.8,0,0,0,295.355,163.255Zm-19.406,25.16h-27.5l-13.74-23.757L248.45,140.9h27.5l13.739,23.756Z" transform="translate(-167.957 -97.349)"/>
        <path id="Path_44" data-name="Path 44" d="M63.527,271.984a2.805,2.805,0,0,0-2.428-1.4H30.365a2.8,2.8,0,0,0-2.428,1.4L12.576,298.546a2.805,2.805,0,0,0,0,2.808l15.361,26.561a2.805,2.805,0,0,0,2.428,1.4H61.1a2.8,2.8,0,0,0,2.428-1.4l15.362-26.561a2.8,2.8,0,0,0,0-2.808Zm-4.046,51.722h-27.5L18.244,299.95l13.739-23.758h27.5l13.74,23.758Z" transform="translate(-12.2 -194.697)"/>
        <path id="Path_45" data-name="Path 45" d="M75.892,39.272a2.8,2.8,0,0,0-3.832,1.022L61.623,58.319a2.8,2.8,0,1,0,4.854,2.81L76.914,43.1A2.8,2.8,0,0,0,75.892,39.272Z" transform="translate(-47.49 -27.986)"/>
        <path id="Path_46" data-name="Path 46" d="M311.178,192.222a2.8,2.8,0,0,0,2.8,2.8h22.767a2.8,2.8,0,0,0,0-5.609H313.983A2.8,2.8,0,0,0,311.178,192.222Z" transform="translate(-227.328 -136.294)"/>
        <path id="Path_47" data-name="Path 47" d="M148.441,384.967a2.8,2.8,0,1,0,4.863,2.794l8.538-14.86a2.8,2.8,0,1,0-4.863-2.794Z" transform="translate(-109.963 -265.295)"/>
      </g>
    </g>
  </g>
</svg>
