<svg xmlns="http://www.w3.org/2000/svg" width="154.329" height="120.872" viewBox="0 0 154.329 120.872"><g transform="translate(-281.726 -3113.434)"><g transform="translate(281.726 3113.434)"><g transform="translate(6.484 0)"><g transform="translate(0.254)"><path d="M863.852,495.234v9.611a4.835,4.835,0,0,0,4.82,4.82s2.4,16.827,7.216,24.043c2.875,4.566,7.216,14.431,24.043,14.431s21.168-9.865,24.043-14.431c4.82-7.216,7.216-24.043,7.216-24.043a4.835,4.835,0,0,0,4.82-4.82v-9.611s0-4.82-4.82-4.82h0s-2.615-15.528-7.406-20.347c-2.424-2.4-6.746-9.068-23.573-9.067-15.728,0-21.76,2.418-26.6,9.671-3.627,4.836-6.367,18.935-5.178,19.856a.514.514,0,0,0,.343.091Zm31.26,7.444a7.089,7.089,0,0,1-7.216,6.96,7.216,7.216,0,1,1,7.216-7.216C895.113,502.507,895.113,502.592,895.112,502.678Zm24.069,0a7.089,7.089,0,0,1-7.216,6.96,7.216,7.216,0,1,1,7.216-7.216C919.182,502.507,919.182,502.592,919.181,502.678Z" transform="translate(-830.169 -461)"/><g transform="translate(50.509 34.204)"><path d="M922.977,517.589a7.216,7.216,0,1,1-7.216,7.216,7.089,7.089,0,0,1,6.96-7.216C922.806,517.587,922.892,517.587,922.977,517.589Zm-24.071,0a7.216,7.216,0,1,1-7.216,7.216,7.089,7.089,0,0,1,6.96-7.216C898.735,517.587,898.821,517.587,898.906,517.589Z" transform="translate(-891.689 -517.588)" fill="#e4f2de"/><path d="M930,625.029l-4.313,21.647H896.825l-4.341-21.647Z" transform="translate(-892.003 -560.087)"/></g><path d="M921.969,648.263a2.4,2.4,0,1,0-2.4-2.4h0a2.264,2.264,0,0,0,2.123,2.4A2.292,2.292,0,0,0,921.969,648.263Zm0-14.431a2.4,2.4,0,1,0-2.4-2.4h0a2.264,2.264,0,0,0,2.12,2.4,2.333,2.333,0,0,0,.276,0Z" transform="translate(-852.208 -527.469)"/><path d="M897.139,621.066c10.644,0,26.165,2.04,26.165,2.04s20.464,7.629,21.949,12.391l2.4,9.611h-55.33l2.448-12.209,1.892-9.438ZM810.551,635.5c2.4-7.216,9.611-14.431,48.114-14.431l.479,2.4,4.341,21.647H808.127Z" transform="translate(-808.127 -524.315)"/></g><g transform="translate(0 32.935)"><path d="M1003.1,643.836l-2.4-9.611c-1.437-4.566-9.386-15.164-48.593-15.164h-.733c-.479,0-1.212.479-1.212.958l-4.849,24.3h2.539l4.455-22.865c38.474,0,44.985,10.344,45.943,13.473l2.452,9.331S1003.351,644.569,1003.1,643.836Z" transform="translate(-862.137 -556.456)"/><path d="M938.177,515.8a8.5,8.5,0,0,1,8.174,6.257l.085-.056a8.5,8.5,0,0,0-16.32-.733c.028.028.085.028.113.056A8.35,8.35,0,0,1,938.177,515.8Z" transform="translate(-856.125 -515.488)" fill="#51565f"/><path d="M946.355,530.086l-.028.028a8.444,8.444,0,0,1-16.856-.733.858.858,0,0,0-.056-.225v.225a8.485,8.485,0,0,0,16.94.7Z" transform="translate(-855.849 -520.894)" fill="#51565f"/><path d="M939.523,531.649a6,6,0,1,0-6-6h0a5.955,5.955,0,0,0,5.905,6Zm0-11.979a5.947,5.947,0,1,1-5.947,5.947h0a5.826,5.826,0,0,1,5.7-5.947C939.36,519.668,939.442,519.668,939.523,519.67Z" transform="translate(-857.472 -517.13)" fill="#51565f"/><path d="M899.7,519.595a6,6,0,1,0,6,6h0a5.955,5.955,0,0,0-5.905-6Zm0,11.951a5.947,5.947,0,1,1,5.947-5.947,5.827,5.827,0,0,1-5.7,5.947C899.862,531.548,899.781,531.548,899.7,531.546Z" transform="translate(-841.719 -517.112)" fill="#51565f"/><path d="M898.224,515.8a8.672,8.672,0,0,1,7.948,5.525c.028-.028.085-.028.113-.056a8.5,8.5,0,0,0-16.32.733l.085.056A8.522,8.522,0,0,1,898.224,515.8Z" transform="translate(-840.244 -515.487)" fill="#51565f"/><path d="M898.093,537.808a8.562,8.562,0,0,1-8.428-7.695l-.028-.028a8.485,8.485,0,0,0,16.94-.7v-.225a.661.661,0,0,0-.056.225A8.544,8.544,0,0,1,898.093,537.808Z" transform="translate(-840.114 -520.894)" fill="#51565f"/><path d="M859.682,620.018a1.635,1.635,0,0,0-1.212-.958c-38.954,0-46.648,7.469-49.3,15.39l-1.466,9.5c0,.733,1.241,1.064,3.89-8.8,2.171-6.736,9.386-13.7,45.943-13.7l4.261,22.938h2.665Z" transform="translate(-807.706 -556.456)"/><path d="M917.457,518.177a6,6,0,1,1-6,6h0a5.955,5.955,0,0,1,5.905-6Zm-24.071,12.035a6,6,0,1,1,6-6h0a5.955,5.955,0,0,1-5.905,6Z" transform="translate(-835.406 -515.694)" fill="none"/><path d="M917.938,549.377" transform="translate(-851.309 -528.893)" fill="none" stroke="#707070" stroke-width="1"/></g></g><path d="M930.79,539.933c3.609,1.613,7.764,1.13,11.682.615l11.275-1.48c8.2-1.076,16.556-2.2,24.013-5.773a87.479,87.479,0,0,1-12.419,7.106c11.549.409,23.162.825,34.48,3.159l-21.457.692c8.876,4.78,17.843,9.623,25.363,16.338l-23.13-4.166a18.381,18.381,0,0,1,8.285,3.148l-2.377.354,3.188,4.656-24.811-11.723c-11.232-5.307-22.976-11-35.382-10.373" transform="translate(-849.398 -489.597)"/><path d="M0,2.247A27.409,27.409,0,0,1,7.817.035,9.256,9.256,0,0,1,15.3,2.518" transform="translate(54.453 30.513) rotate(-11)" fill="none"/><path d="M869.915,540.61c-3.609,1.613-7.763,1.13-11.683.616l-11.275-1.481c-8.2-1.076-16.556-2.2-24.012-5.773a87.449,87.449,0,0,0,12.419,7.106c-11.549.409-23.162.825-34.481,3.159l21.457.691c-8.876,4.78-17.843,9.623-25.363,16.338l23.13-4.165a18.375,18.375,0,0,0-8.286,3.147l2.377.354-3.188,4.656,24.811-11.723c11.232-5.307,22.976-11,35.382-10.373" transform="translate(-796.978 -489.864)"/><path d="M919.754,534.883c-1-.226-1.882.65-2.536,1.443a2.924,2.924,0,0,0-.653,4.085l1.387,2.618c.571,1.078,1.364,2.3,2.583,2.336,1.237.034,2.1-1.176,2.721-2.247l2.147-3.69a1.759,1.759,0,0,0,.334-.992,1.58,1.58,0,0,0-.368-.785,7.615,7.615,0,0,0-5.356-2.968" transform="translate(-844.062 -490.146)" fill="#3c0608"/><path d="M0,.271A27.41,27.41,0,0,0,7.817,2.483,9.256,9.256,0,0,0,15.3,0" transform="translate(98.144 31.776) rotate(-169)" fill="none"/></g></g></svg>