<svg xmlns="http://www.w3.org/2000/svg" width="157.527" height="124.083" viewBox="0 0 157.527 124.083"><g transform="translate(-796.151 -459)"><g transform="translate(803.527 461)"><g transform="translate(0.257)"><path d="M863.852,495.577v9.707a4.884,4.884,0,0,0,4.868,4.868s2.42,17,7.288,24.284c2.9,4.612,7.288,14.576,24.284,14.576s21.38-9.964,24.284-14.576c4.868-7.288,7.288-24.284,7.288-24.284a4.884,4.884,0,0,0,4.868-4.868v-9.707s0-4.868-4.868-4.868h0s-2.641-15.683-7.48-20.551c-2.448-2.42-6.814-9.159-23.809-9.158-15.886,0-21.978,2.442-26.862,9.768-3.663,4.884-6.431,19.125-5.23,20.055a.519.519,0,0,0,.346.092Zm31.573,7.518a7.16,7.16,0,0,1-7.288,7.029,7.288,7.288,0,1,1,7.288-7.288C895.426,502.922,895.426,503.008,895.424,503.1Zm24.31,0a7.16,7.16,0,0,1-7.288,7.029,7.288,7.288,0,1,1,7.288-7.288C919.736,502.922,919.736,503.008,919.735,503.1Z" transform="translate(-829.832 -461)" fill="#ffd0a1" stroke="#666" stroke-miterlimit="10" stroke-width="4"/><g transform="translate(51.014 34.547)"><path d="M923.29,517.589A7.288,7.288,0,1,1,916,524.877a7.16,7.16,0,0,1,7.029-7.288C923.117,517.587,923.2,517.587,923.29,517.589Zm-24.312,0a7.288,7.288,0,1,1-7.288,7.288,7.16,7.16,0,0,1,7.029-7.288C898.806,517.587,898.892,517.587,898.978,517.589Z" transform="translate(-891.689 -517.588)" fill="#e4f2de"/><path d="M930.376,625.029l-4.356,21.864H896.868l-4.384-21.864Z" transform="translate(-891.999 -559.436)" fill="#e4f2de"/></g><path d="M921.993,648.456a2.42,2.42,0,1,0-2.42-2.42h0a2.287,2.287,0,0,0,2.144,2.42A2.338,2.338,0,0,0,921.993,648.456Zm0-14.576a2.42,2.42,0,1,0-2.42-2.42h0a2.287,2.287,0,0,0,2.142,2.422,2.38,2.38,0,0,0,.278,0Z" transform="translate(-851.534 -526.452)" fill="#ffe079"/><path d="M898.03,621.066c34.02,0,46.4,7.544,48.6,14.576l2.42,9.707H893.162l4.384-21.864Zm-87.455,14.576c2.42-7.288,9.707-14.576,48.6-14.576l.484,2.42,4.384,21.864H808.127Z" transform="translate(-808.127 -523.346)" fill="#faf9f5"/></g><g transform="translate(0 33.264)"><path d="M1003.676,644.084l-2.42-9.707c-1.452-4.612-9.48-15.316-49.08-15.316h-.74c-.484,0-1.224.484-1.224.968l-4.9,24.546h2.564l4.5-23.094c38.859,0,45.436,10.448,46.4,13.608l2.477,9.424S1003.932,644.825,1003.676,644.084Z" transform="translate(-861.305 -555.829)" fill="#51565f"/><path d="M938.257,515.8a8.582,8.582,0,0,1,8.256,6.32l.086-.057a8.587,8.587,0,0,0-16.484-.74c.029.029.086.029.114.057A8.434,8.434,0,0,1,938.257,515.8Z" transform="translate(-855.384 -515.487)" fill="#51565f"/><path d="M946.525,530.095l-.029.029a8.529,8.529,0,0,1-17.024-.74.866.866,0,0,0-.057-.228v.228a8.57,8.57,0,0,0,17.11.712Z" transform="translate(-855.112 -520.811)" fill="#51565f"/><path d="M939.583,531.769a6.064,6.064,0,1,0-6.063-6.065h0a6.014,6.014,0,0,0,5.965,6.064Zm0-12.1a6.007,6.007,0,1,1-6.007,6.007h0a5.885,5.885,0,0,1,5.76-6.007C939.419,519.668,939.5,519.668,939.583,519.67Z" transform="translate(-856.711 -517.105)" fill="#51565f"/><path d="M899.759,519.595a6.064,6.064,0,1,0,6.064,6.064h0a6.014,6.014,0,0,0-5.965-6.064Zm0,12.071a6.007,6.007,0,1,1,6.007-6.007,5.885,5.885,0,0,1-5.76,6.007C899.923,531.667,899.841,531.667,899.759,531.665Z" transform="translate(-841.199 -517.087)" fill="#51565f"/><path d="M898.306,515.8a8.759,8.759,0,0,1,8.028,5.58c.029-.029.086-.029.114-.057a8.587,8.587,0,0,0-16.483.74l.085.057A8.607,8.607,0,0,1,898.306,515.8Z" transform="translate(-839.746 -515.487)" fill="#51565f"/><path d="M898.178,537.895a8.648,8.648,0,0,1-8.512-7.772l-.029-.029a8.57,8.57,0,0,0,17.11-.712v-.228a.671.671,0,0,0-.057.228A8.629,8.629,0,0,1,898.178,537.895Z" transform="translate(-839.618 -520.811)" fill="#51565f"/><path d="M860.2,620.028a1.651,1.651,0,0,0-1.224-.968c-39.344,0-47.115,7.544-49.792,15.544l-1.48,9.6c0,.74,1.253,1.075,3.929-8.889,2.192-6.8,9.48-13.836,46.4-13.836l4.3,23.168h2.692Z" transform="translate(-807.706 -555.829)" fill="#51565f"/><path d="M921.215,650.91c-1.936,0-3.644,1.44-3.644,3.071s1.709,3.072,3.644,3.072,3.644-1.44,3.644-3.072S923.151,650.91,921.215,650.91Zm0,4.1c-.74,0-1.224-.408-1.224-1.032s.484-1.032,1.224-1.032,1.224.408,1.224,1.032a1.086,1.086,0,0,1-1.13,1.04C921.277,655.02,921.246,655.017,921.215,655.014Z" transform="translate(-850.499 -568.235)" fill="#51565f"/><path d="M921.215,627.034a3.644,3.644,0,1,0,3.644,3.644h0A3.747,3.747,0,0,0,921.215,627.034Zm0,4.868a1.224,1.224,0,1,1,1.224-1.224,1.165,1.165,0,0,1-1.1,1.224C921.295,631.9,921.255,631.9,921.215,631.9Z" transform="translate(-850.499 -558.935)" fill="#51565f"/><path d="M917.854,532.775A8.648,8.648,0,0,0,926.367,525l.029-.029,6.777-4.584a1.239,1.239,0,0,0,.484-.968.885.885,0,0,0-.256-.74c-.484-.484-1.224-.74-1.709-.256l-5.494,3.846-.085.057a8.607,8.607,0,0,0-8.256-6.32,8.433,8.433,0,0,0-8.028,5.58c-.029-.029-.086-.029-.114-.057a9.008,9.008,0,0,0-4.014-.683,9.175,9.175,0,0,0-4.014.683c-.029.029-.086.029-.114.057a8.759,8.759,0,0,0-8.028-5.58,8.582,8.582,0,0,0-8.256,6.32l-.085-.057-5.495-3.846a1.192,1.192,0,0,0-1.709.256.886.886,0,0,0-.256.74,1.839,1.839,0,0,0,.484.968L885,524.974l.029.029a8.529,8.529,0,0,0,17.024-.74.866.866,0,0,1,.057-.228c.256-.455,1.282-1,3.587-1s3.331.541,3.587,1a.67.67,0,0,1,.057.228A8.608,8.608,0,0,0,917.854,532.775Zm0-14.576a6.064,6.064,0,1,1-6.064,6.064h0a6.014,6.014,0,0,1,5.965-6.064Zm-24.312,12.156a6.064,6.064,0,1,1,6.064-6.064h0a6.014,6.014,0,0,1-5.965,6.064Z" transform="translate(-834.982 -515.691)" fill="#51565f"/><path d="M917.938,549.377" transform="translate(-850.642 -528.687)" fill="none" stroke="#707070" stroke-width="1"/></g></g><path d="M930.8,540c3.645,1.629,7.841,1.142,11.8.621l11.388-1.5c8.281-1.087,16.722-2.221,24.253-5.831a88.35,88.35,0,0,1-12.543,7.177c11.664.413,23.394.833,34.825,3.19l-21.672.7c8.965,4.828,18.022,9.72,25.617,16.5l-23.361-4.208a18.565,18.565,0,0,1,8.368,3.18l-2.4.357,3.22,4.7-25.059-11.84c-11.345-5.36-23.206-11.112-35.737-10.477" transform="translate(-51.618 -28.159)" fill="#603813" stroke="#603813" stroke-miterlimit="10" stroke-width="0.5"/><path d="M903.48,558.607a4.749,4.749,0,0,0,2.919,2.044,14.083,14.083,0,0,0,3.63.333c1.123,0,2.247.01,3.365-.093a34.887,34.887,0,0,0,9.372-2.693c1.528-.6,3.177-1.3,3.961-2.743" transform="translate(-41.483 -36.79)" fill="none" stroke="#51565f" stroke-miterlimit="10" stroke-width="1"/><path d="M931.26,508.563c4.576-1.421,11.062-12.3,16.019-2.6,1.621,3.169,3.084,1.355,4.274,1.221" transform="translate(-52.303 -15.961)" fill="none" stroke="#603813" stroke-miterlimit="10" stroke-width="1"/><path d="M890.231,510.649a27.683,27.683,0,0,1,7.895-2.234,9.349,9.349,0,0,1,7.559,2.508" transform="translate(-36.322 -18.454)" fill="none" stroke="#754c24" stroke-miterlimit="10" stroke-width="1"/><path d="M870.645,540.676c-3.645,1.629-7.841,1.142-11.8.622l-11.388-1.5c-8.281-1.087-16.721-2.221-24.253-5.831a88.323,88.323,0,0,0,12.543,7.177c-11.665.413-23.394.833-34.826,3.191l21.672.7c-8.964,4.828-18.021,9.72-25.617,16.5l23.361-4.207a18.559,18.559,0,0,0-8.369,3.179l2.4.357-3.22,4.7,25.06-11.84c11.344-5.36,23.206-11.112,35.737-10.477" transform="translate(0 -28.423)" fill="#603813" stroke="#603813" stroke-miterlimit="10" stroke-width="0.5"/><path d="M919.792,534.885c-1.012-.228-1.9.657-2.561,1.457a2.953,2.953,0,0,0-.659,4.126l1.4,2.644c.577,1.089,1.377,2.324,2.609,2.359,1.25.035,2.119-1.188,2.748-2.269l2.169-3.727a1.778,1.778,0,0,0,.337-1,1.6,1.6,0,0,0-.371-.792,7.692,7.692,0,0,0-5.41-3" transform="translate(-46.364 -28.7)" fill="#c1272d" stroke="#666" stroke-miterlimit="10" stroke-width="1"/></g></svg>