<svg xmlns="http://www.w3.org/2000/svg" width="193.951" height="222" viewBox="0 0 193.951 222">
  <g id="world-svgrepo-com" transform="translate(-29.691)">
    <path id="Path_54" data-name="Path 54" d="M73.968,156.418A13.877,13.877,0,0,0,57.4,154.13V107.993a13.764,13.764,0,0,0-1.618-6.489,6.771,6.771,0,0,1,8.7,6.489v34.06a3.543,3.543,0,1,0,7.085,0v-34.06a13.854,13.854,0,0,0-20.945-11.9A13.847,13.847,0,0,0,29.691,108l.058,65.015a22.817,22.817,0,0,0,2.555,9.742c.024.043.049.084.074.126l40.807,66.081a16.014,16.014,0,0,1,1.611,6.217V268.13a3.543,3.543,0,0,0,7.085,0V255.176a22.783,22.783,0,0,0-2.551-9.745c-.024-.042-.049-.084-.074-.126l-40.807-66.08a16.052,16.052,0,0,1-1.615-6.22l-.058-65.012a6.77,6.77,0,1,1,13.54,0v58.222c0,.083.007.165.012.247a13.8,13.8,0,0,0,4.046,9.55l31.73,31.73a3.542,3.542,0,0,0,5.01-5.01L59.384,171a6.77,6.77,0,0,1,9.574-9.574L108,200.47c4.358,4.358,8.04,13.246,8.04,19.409V268.13a3.543,3.543,0,0,0,7.085,0V219.879c0-8.021-4.443-18.748-10.115-24.42Z" transform="translate(0 -49.673)"/>
    <path id="Path_55" data-name="Path 55" d="M322.077,94.139A13.765,13.765,0,0,0,315,96.091a13.854,13.854,0,0,0-20.945,11.9v34.06a3.543,3.543,0,1,0,7.085,0v-34.06a6.771,6.771,0,0,1,8.7-6.489,13.769,13.769,0,0,0-1.618,6.489v46.137a13.877,13.877,0,0,0-16.567,2.288l-39.042,39.042c-5.672,5.672-10.115,16.4-10.115,24.42v48.25a3.543,3.543,0,0,0,7.085,0V219.88c0-6.163,3.682-15.052,8.04-19.409l39.042-39.042A6.77,6.77,0,0,1,306.239,171l-31.73,31.73a3.542,3.542,0,0,0,5.01,5.01l31.73-31.73a13.805,13.805,0,0,0,4.046-9.55c.006-.082.012-.163.012-.247V107.994a6.77,6.77,0,0,1,13.54,0l-.058,65.015a16.06,16.06,0,0,1-1.615,6.22l-40.807,66.081c-.026.041-.05.083-.074.126a22.782,22.782,0,0,0-2.551,9.745v12.954a3.543,3.543,0,0,0,7.085,0V255.177a16.016,16.016,0,0,1,1.611-6.217l40.807-66.081c.025-.041.05-.083.074-.126a22.815,22.815,0,0,0,2.555-9.742l.058-65.018A13.871,13.871,0,0,0,322.077,94.139Z" transform="translate(-112.29 -49.673)"/>
    <path id="Path_56" data-name="Path 56" d="M195.17,95.089a48.9,48.9,0,0,0,28.382-23.513,3.572,3.572,0,0,0,.326-.617,48.582,48.582,0,0,0,.414-43.794,3.522,3.522,0,0,0-.258-.519,48.9,48.9,0,0,0-28.99-24.472,3.5,3.5,0,0,0-.4-.12,48.684,48.684,0,0,0-27.979,0,3.513,3.513,0,0,0-.408.122A48.654,48.654,0,0,0,194.8,95.2,3.527,3.527,0,0,0,195.17,95.089Zm2.333-8.445V69.621a3.543,3.543,0,0,0-3.543-3.543H185.6a1.74,1.74,0,0,1-.383-1.181V56.445h24.257l7.073,13.134A41.835,41.835,0,0,1,197.5,86.644ZM189.329,8a9.746,9.746,0,0,1-17.356,0,41.653,41.653,0,0,1,17.356,0ZM139.085,48.651a41.492,41.492,0,0,1,14.82-31.79V34.324h-4.66a3.543,3.543,0,0,0-3.543,3.543V60.775a3.543,3.543,0,0,0,3.543,3.543h5.983a1.2,1.2,0,0,1,1.181,1.181v9.07a3.543,3.543,0,1,0,7.085,0V65.5a8.275,8.275,0,0,0-8.266-8.266h-2.441V41.409h1.528a3.542,3.542,0,0,0,6.675-1.653V12.038a41.348,41.348,0,0,1,4.142-1.945,16.84,16.84,0,0,0,31.037,0,41.8,41.8,0,0,1,18.591,14.834H199.786a3.543,3.543,0,0,0-3.543,3.543V32.04H184.986a3.539,3.539,0,0,0-2.126,6.372v3.311a3.543,3.543,0,0,0,7.085,0v-2.6h9.84a3.543,3.543,0,0,0,3.543-3.543V32.011h15.409a41.546,41.546,0,0,1,1.47,29.412l-5.493-10.2a3.543,3.543,0,0,0-3.119-1.863H181.679a3.543,3.543,0,0,0-3.543,3.543v12c0,4.558,3.284,8.266,7.321,8.266h4.96V89.056a41.574,41.574,0,0,1-51.333-40.4Z" transform="translate(-53.984)"/>
  </g>
</svg>
