<svg xmlns="http://www.w3.org/2000/svg" width="222" height="211" viewBox="0 0 222 211"><g transform="translate(-170.835 -865)"><g transform="translate(220.671 951.826)"><g transform="translate(6.484 0)"><g transform="translate(0.254)"><path d="M863.852,495.234v9.611a4.835,4.835,0,0,0,4.82,4.82s2.4,16.827,7.216,24.043c2.875,4.566,7.216,14.431,24.043,14.431s21.168-9.865,24.043-14.431c4.82-7.216,7.216-24.043,7.216-24.043a4.835,4.835,0,0,0,4.82-4.82v-9.611s0-4.82-4.82-4.82h0s-2.615-15.528-7.406-20.347c-2.424-2.4-6.746-9.068-23.573-9.067-15.728,0-21.76,2.418-26.6,9.671-3.627,4.836-6.367,18.935-5.178,19.856a.514.514,0,0,0,.343.091Zm31.26,7.444a7.089,7.089,0,0,1-7.216,6.96,7.216,7.216,0,1,1,7.216-7.216C895.113,502.507,895.113,502.592,895.112,502.678Zm24.069,0a7.089,7.089,0,0,1-7.216,6.96,7.216,7.216,0,1,1,7.216-7.216C919.182,502.507,919.182,502.592,919.181,502.678Z" transform="translate(-830.169 -461)"/><g transform="translate(50.509 34.204)"><path d="M922.977,517.589a7.216,7.216,0,1,1-7.216,7.216,7.089,7.089,0,0,1,6.96-7.216C922.806,517.587,922.892,517.587,922.977,517.589Zm-24.071,0a7.216,7.216,0,1,1-7.216,7.216,7.089,7.089,0,0,1,6.96-7.216C898.735,517.587,898.821,517.587,898.906,517.589Z" transform="translate(-891.689 -517.588)" fill="#e4f2de"/><path d="M930,625.029l-4.313,21.647H896.825l-4.341-21.647Z" transform="translate(-892.003 -560.087)"/></g><path d="M921.969,648.263a2.4,2.4,0,1,0-2.4-2.4h0a2.264,2.264,0,0,0,2.123,2.4A2.292,2.292,0,0,0,921.969,648.263Zm0-14.431a2.4,2.4,0,1,0-2.4-2.4h0a2.264,2.264,0,0,0,2.12,2.4,2.333,2.333,0,0,0,.276,0Z" transform="translate(-852.208 -527.469)"/><path d="M897.139,621.066c10.644,0,26.165,2.04,26.165,2.04s20.464,7.629,21.949,12.391l2.4,9.611h-55.33l2.448-12.209,1.892-9.438ZM810.551,635.5c2.4-7.216,9.611-14.431,48.114-14.431l.479,2.4,4.341,21.647H808.127Z" transform="translate(-808.127 -524.315)"/></g><g transform="translate(0 32.935)"><path d="M1003.1,643.836l-2.4-9.611c-1.437-4.566-9.386-15.164-48.593-15.164h-.733c-.479,0-1.212.479-1.212.958l-4.849,24.3h2.539l4.455-22.865c38.474,0,44.985,10.344,45.943,13.473l2.452,9.331S1003.351,644.569,1003.1,643.836Z" transform="translate(-862.137 -556.456)"/><path d="M938.177,515.8a8.5,8.5,0,0,1,8.174,6.257l.085-.056a8.5,8.5,0,0,0-16.32-.733c.028.028.085.028.113.056A8.35,8.35,0,0,1,938.177,515.8Z" transform="translate(-856.125 -515.488)" fill="#51565f"/><path d="M946.355,530.086l-.028.028a8.444,8.444,0,0,1-16.856-.733.858.858,0,0,0-.056-.225v.225a8.485,8.485,0,0,0,16.94.7Z" transform="translate(-855.849 -520.894)" fill="#51565f"/><path d="M939.523,531.649a6,6,0,1,0-6-6h0a5.955,5.955,0,0,0,5.905,6Zm0-11.979a5.947,5.947,0,1,1-5.947,5.947h0a5.826,5.826,0,0,1,5.7-5.947C939.36,519.668,939.442,519.668,939.523,519.67Z" transform="translate(-857.472 -517.13)" fill="#51565f"/><path d="M899.7,519.595a6,6,0,1,0,6,6h0a5.955,5.955,0,0,0-5.905-6Zm0,11.951a5.947,5.947,0,1,1,5.947-5.947,5.827,5.827,0,0,1-5.7,5.947C899.862,531.548,899.781,531.548,899.7,531.546Z" transform="translate(-841.719 -517.112)" fill="#51565f"/><path d="M898.224,515.8a8.672,8.672,0,0,1,7.948,5.525c.028-.028.085-.028.113-.056a8.5,8.5,0,0,0-16.32.733l.085.056A8.522,8.522,0,0,1,898.224,515.8Z" transform="translate(-840.244 -515.487)" fill="#51565f"/><path d="M898.093,537.808a8.562,8.562,0,0,1-8.428-7.695l-.028-.028a8.485,8.485,0,0,0,16.94-.7v-.225a.661.661,0,0,0-.056.225A8.544,8.544,0,0,1,898.093,537.808Z" transform="translate(-840.114 -520.894)" fill="#51565f"/><path d="M859.682,620.018a1.635,1.635,0,0,0-1.212-.958c-38.954,0-46.648,7.469-49.3,15.39l-1.466,9.5c0,.733,1.241,1.064,3.89-8.8,2.171-6.736,9.386-13.7,45.943-13.7l4.261,22.938h2.665Z" transform="translate(-807.706 -556.456)"/><path d="M917.457,518.177a6,6,0,1,1-6,6h0a5.955,5.955,0,0,1,5.905-6Zm-24.071,12.035a6,6,0,1,1,6-6h0a5.955,5.955,0,0,1-5.905,6Z" transform="translate(-835.406 -515.694)" fill="none"/><path d="M917.938,549.377" transform="translate(-851.309 -528.893)" fill="none" stroke="#707070" stroke-width="1"/></g></g><path d="M930.79,539.933c3.609,1.613,7.764,1.13,11.682.615l11.275-1.48c8.2-1.076,16.556-2.2,24.013-5.773a87.479,87.479,0,0,1-12.419,7.106c11.549.409,23.162.825,34.48,3.159l-21.457.692c8.876,4.78,17.843,9.623,25.363,16.338l-23.13-4.166a18.381,18.381,0,0,1,8.285,3.148l-2.377.354,3.188,4.656-24.811-11.723c-11.232-5.307-22.976-11-35.382-10.373" transform="translate(-849.398 -489.597)"/><path d="M0,2.247A27.409,27.409,0,0,1,7.817.035,9.256,9.256,0,0,1,15.3,2.518" transform="translate(54.453 30.513) rotate(-11)" fill="none"/><path d="M869.915,540.61c-3.609,1.613-7.763,1.13-11.683.616l-11.275-1.481c-8.2-1.076-16.556-2.2-24.012-5.773a87.449,87.449,0,0,0,12.419,7.106c-11.549.409-23.162.825-34.481,3.159l21.457.691c-8.876,4.78-17.843,9.623-25.363,16.338l23.13-4.165a18.375,18.375,0,0,0-8.286,3.147l2.377.354-3.188,4.656,24.811-11.723c11.232-5.307,22.976-11,35.382-10.373" transform="translate(-796.978 -489.864)"/><path d="M919.754,534.883c-1-.226-1.882.65-2.536,1.443a2.924,2.924,0,0,0-.653,4.085l1.387,2.618c.571,1.078,1.364,2.3,2.583,2.336,1.237.034,2.1-1.176,2.721-2.247l2.147-3.69a1.759,1.759,0,0,0,.334-.992,1.58,1.58,0,0,0-.368-.785,7.615,7.615,0,0,0-5.356-2.968" transform="translate(-844.062 -490.146)" fill="#3c0608"/><path d="M0,.271A27.41,27.41,0,0,0,7.817,2.483,9.256,9.256,0,0,0,15.3,0" transform="translate(98.144 31.776) rotate(-169)" fill="none"/></g><ellipse cx="111" cy="105.5" rx="111" ry="105.5" transform="translate(170.835 865)" fill="rgba(255,238,170,0.13)"/><g transform="translate(206.946 954.128)"><g transform="translate(0 0.884)"><g transform="translate(6.33)"><g transform="translate(0.248)"><path d="M863.852,494.417V503.8a4.72,4.72,0,0,0,4.7,4.7s2.339,16.426,7.044,23.469c2.807,4.457,7.044,14.087,23.469,14.087s20.663-9.63,23.469-14.087c4.7-7.044,7.044-23.469,7.044-23.469a4.72,4.72,0,0,0,4.7-4.7v-9.381s0-4.7-4.7-4.7h0s-2.552-15.157-7.229-19.862c-2.366-2.339-6.585-8.851-23.011-8.85-15.353,0-21.241,2.36-25.961,9.44-3.54,4.72-6.215,18.484-5.055,19.382a.5.5,0,0,0,.334.088Zm30.513,7.266a6.92,6.92,0,0,1-7.044,6.793,7.044,7.044,0,1,1,7.044-7.044C894.367,501.516,894.367,501.6,894.365,501.683Zm23.495,0a6.92,6.92,0,0,1-7.044,6.793,7.044,7.044,0,1,1,7.044-7.044C917.862,501.516,917.862,501.6,917.86,501.683Z" transform="translate(-830.973 -461)" fill="#ffd0a1" stroke="#666" stroke-miterlimit="10" stroke-width="4"/><g transform="translate(49.303 33.388)"><path d="M922.23,517.589a7.044,7.044,0,1,1-7.044,7.044,6.92,6.92,0,0,1,6.794-7.044C922.063,517.587,922.147,517.587,922.23,517.589Zm-23.5,0a7.044,7.044,0,1,1-7.044,7.044,6.92,6.92,0,0,1,6.794-7.044C898.567,517.587,898.651,517.587,898.734,517.589Z" transform="translate(-891.689 -517.588)" fill="#e4f2de"/><path d="M929.1,625.029l-4.21,21.13H896.721l-4.237-21.13Z" transform="translate(-892.015 -561.636)" fill="#e4f2de"/></g><path d="M921.912,647.8a2.339,2.339,0,1,0-2.339-2.339h0a2.21,2.21,0,0,0,2.072,2.339A2.235,2.235,0,0,0,921.912,647.8Zm0-14.087a2.339,2.339,0,1,0-2.339-2.339h0a2.21,2.21,0,0,0,2.07,2.341,2.248,2.248,0,0,0,.269,0Z" transform="translate(-853.816 -529.893)" fill="#ffe079"/><path d="M895.015,621.066c32.879,0,44.847,7.291,46.966,14.087l2.339,9.381H890.31l4.237-21.13Zm-84.522,14.087c2.339-7.044,9.381-14.087,46.966-14.087l.468,2.339,4.237,21.13H808.127Z" transform="translate(-808.127 -526.624)" fill="#faf9f5"/></g><g transform="translate(0 32.149)"><path d="M1001.718,643.245l-2.339-9.381c-1.4-4.457-9.162-14.8-47.433-14.8h-.715c-.468,0-1.183.468-1.183.935l-4.734,23.723h2.478l4.348-22.319c37.556,0,43.912,10.1,44.847,13.152l2.394,9.108S1001.966,643.96,1001.718,643.245Z" transform="translate(-864.123 -557.95)" fill="#51565f"/><path d="M937.984,515.793a8.294,8.294,0,0,1,7.979,6.108l.083-.055a8.3,8.3,0,0,0-15.931-.715c.028.028.083.028.11.055A8.151,8.151,0,0,1,937.984,515.793Z" transform="translate(-857.891 -515.487)" fill="#51565f"/><path d="M945.951,530.063l-.028.028a8.243,8.243,0,0,1-16.453-.715.833.833,0,0,0-.055-.22v.22a8.282,8.282,0,0,0,16.536.688Z" transform="translate(-857.604 -521.091)" fill="#51565f"/><path d="M939.38,531.362a5.861,5.861,0,1,0-5.86-5.861h0a5.813,5.813,0,0,0,5.764,5.861Zm0-11.693a5.805,5.805,0,1,1-5.805,5.805h0a5.687,5.687,0,0,1,5.567-5.805C939.221,519.668,939.3,519.668,939.38,519.669Z" transform="translate(-859.287 -517.19)" fill="#51565f"/><path d="M899.556,519.595a5.861,5.861,0,1,0,5.861,5.861h0a5.813,5.813,0,0,0-5.764-5.861Zm0,11.666a5.805,5.805,0,1,1,5.805-5.805,5.687,5.687,0,0,1-5.567,5.805C899.714,531.262,899.635,531.262,899.556,531.26Z" transform="translate(-842.96 -517.171)" fill="#51565f"/><path d="M898.026,515.793a8.465,8.465,0,0,1,7.759,5.393c.028-.028.083-.028.11-.055a8.3,8.3,0,0,0-15.931.715l.083.055A8.319,8.319,0,0,1,898.026,515.793Z" transform="translate(-841.43 -515.487)" fill="#51565f"/><path d="M897.891,537.6a8.357,8.357,0,0,1-8.227-7.511l-.028-.028a8.282,8.282,0,0,0,16.536-.688v-.22a.645.645,0,0,0-.055.22A8.34,8.34,0,0,1,897.891,537.6Z" transform="translate(-841.296 -521.091)" fill="#51565f"/><path d="M858.441,620a1.6,1.6,0,0,0-1.183-.935c-38.024,0-45.535,7.291-48.121,15.022l-1.431,9.278c0,.715,1.211,1.039,3.8-8.591,2.119-6.576,9.162-13.372,44.847-13.372l4.16,22.391h2.6Z" transform="translate(-807.706 -557.95)" fill="#51565f"/><path d="M921.093,650.91c-1.871,0-3.522,1.391-3.522,2.968s1.652,2.969,3.522,2.969,3.522-1.392,3.522-2.969S922.964,650.91,921.093,650.91Zm0,3.966c-.715,0-1.183-.394-1.183-1s.468-1,1.183-1,1.183.394,1.183,1a1.049,1.049,0,0,1-1.093,1C921.153,654.883,921.123,654.88,921.093,654.876Z" transform="translate(-852.748 -571.008)" fill="#51565f"/><path d="M921.093,627.034a3.522,3.522,0,1,0,3.522,3.522h0A3.621,3.621,0,0,0,921.093,627.034Zm0,4.7a1.183,1.183,0,1,1,1.183-1.183,1.126,1.126,0,0,1-1.067,1.183C921.17,631.741,921.132,631.741,921.093,631.739Z" transform="translate(-852.748 -561.219)" fill="#51565f"/><path d="M916.509,532.212a8.357,8.357,0,0,0,8.227-7.511l.028-.028,6.549-4.43a1.2,1.2,0,0,0,.468-.935.856.856,0,0,0-.248-.715c-.468-.468-1.183-.715-1.652-.248l-5.31,3.717-.083.055a8.319,8.319,0,0,0-7.979-6.108,8.151,8.151,0,0,0-7.759,5.393c-.028-.028-.083-.028-.11-.055a8.7,8.7,0,0,0-3.879-.66,8.867,8.867,0,0,0-3.879.66c-.028.028-.083.028-.11.055a8.465,8.465,0,0,0-7.759-5.393,8.294,8.294,0,0,0-7.979,6.108l-.083-.055-5.31-3.717a1.152,1.152,0,0,0-1.652.248.856.856,0,0,0-.248.715,1.778,1.778,0,0,0,.468.935l6.549,4.43.028.028a8.243,8.243,0,0,0,16.453-.715.842.842,0,0,1,.055-.22c.248-.44,1.239-.963,3.467-.963s3.219.523,3.467.963a.648.648,0,0,1,.055.22A8.319,8.319,0,0,0,916.509,532.212Zm0-14.087a5.861,5.861,0,1,1-5.861,5.861h0a5.813,5.813,0,0,1,5.765-5.861Zm-23.5,11.748a5.861,5.861,0,1,1,5.861-5.861h0a5.813,5.813,0,0,1-5.765,5.861Z" transform="translate(-836.416 -515.701)" fill="#51565f"/><path d="M917.938,549.377" transform="translate(-852.899 -529.381)" fill="none" stroke="#707070" stroke-width="1"/></g></g><path d="M930.759,539.775c3.522,1.575,7.578,1.1,11.4.6l11.006-1.445c8-1.051,16.161-2.147,23.44-5.635a85.4,85.4,0,0,1-12.123,6.936c11.273.4,22.609.805,33.657,3.083l-20.945.676c8.664,4.666,17.417,9.394,24.758,15.948l-22.578-4.066a17.941,17.941,0,0,1,8.087,3.073l-2.32.345,3.112,4.545-24.219-11.443c-10.964-5.18-22.427-10.739-34.538-10.125" transform="translate(-851.309 -490.639)" fill="#603813" stroke="#603813" stroke-miterlimit="10" stroke-width="0.5"/><path d="M0,2.194A26.755,26.755,0,0,1,7.63.034a9.035,9.035,0,0,1,7.3,2.424" transform="translate(53.154 29.785) rotate(-11)" fill="none" stroke="#754c24" stroke-miterlimit="10" stroke-width="1"/><path d="M868.174,540.452c-3.522,1.575-7.578,1.1-11.4.6l-11.006-1.446c-8-1.051-16.161-2.147-23.439-5.635a85.358,85.358,0,0,0,12.123,6.936c-11.273.4-22.61.805-33.658,3.084l20.945.675c-8.664,4.666-17.417,9.394-24.757,15.948l22.578-4.066a17.936,17.936,0,0,0-8.088,3.072l2.32.345-3.112,4.545L834.9,553.069c10.964-5.18,22.427-10.739,34.538-10.125" transform="translate(-796.978 -490.917)" fill="#603813" stroke="#603813" stroke-miterlimit="10" stroke-width="0.5"/><path d="M919.665,534.878c-.978-.221-1.837.635-2.475,1.408a2.854,2.854,0,0,0-.637,3.988l1.354,2.555c.557,1.052,1.331,2.246,2.522,2.28,1.208.034,2.048-1.148,2.656-2.193l2.1-3.6a1.717,1.717,0,0,0,.326-.969,1.542,1.542,0,0,0-.359-.766,7.434,7.434,0,0,0-5.228-2.9" transform="translate(-845.779 -491.209)" fill="#c1272d" stroke="#666" stroke-miterlimit="10" stroke-width="1"/><path d="M10.165,0A29.944,29.944,0,0,1,8.5,7.211,4.45,4.45,0,0,1,5,10.328c-1.44.348-3.129-1.365-3.851-3.4A22.7,22.7,0,0,1,0,.551" transform="translate(67.006 58.102) rotate(-1)" fill="none" stroke="#707070" stroke-width="3"/><path d="M0,.264A26.756,26.756,0,0,0,7.63,2.424,9.035,9.035,0,0,0,14.935,0" transform="translate(95.801 31.018) rotate(-169)" fill="none" stroke="#754c24" stroke-miterlimit="10" stroke-width="1"/></g><g transform="translate(61.692 26.534) rotate(180)" fill="#faf9f5"><path d="M 6.279045104980469 26.03418350219727 C 5.372025012969971 26.03418350219727 3.856995105743408 23.78250312805176 2.325015068054199 17.46292304992676 C 1.194305062294006 12.79857349395752 0.5000051259994507 7.701393604278564 0.5000051259994507 6.100393772125244 C 0.5000051259994507 3.012323617935181 3.092475175857544 0.5000036358833313 6.279045104980469 0.5000036358833313 C 9.465624809265137 0.5000036358833313 12.05809497833252 3.012323617935181 12.05809497833252 6.100393772125244 C 12.05809497833252 7.701393604278564 11.36379528045654 12.79857349395752 10.23307514190674 17.46292304992676 C 9.604934692382812 20.0540828704834 8.943775177001953 22.12167358398438 8.267965316772461 23.60826301574707 C 7.272584915161133 25.79780387878418 6.545464992523193 26.03418350219727 6.279045104980469 26.03418350219727 Z" stroke="none"/><path d="M 6.279045104980469 1.000003814697266 C 3.368165016174316 1.000003814697266 0.999995231628418 3.288034439086914 0.999995231628418 6.100393295288086 C 0.999995231628418 7.676454544067383 1.688935279846191 12.71675395965576 2.810935020446777 17.34512329101562 C 3.422935485839844 19.86968421936035 4.091825485229492 21.96389389038086 4.745305061340332 23.40134429931641 C 5.5367751121521 25.14235305786133 6.132695198059082 25.53418350219727 6.279045104980469 25.53418350219727 C 6.425395011901855 25.53418350219727 7.021315097808838 25.14235305786133 7.812785148620605 23.40134429931641 C 8.466255187988281 21.96389389038086 9.13514518737793 19.86968421936035 9.74714469909668 17.34512329101562 C 10.86914539337158 12.71675395965576 11.55808544158936 7.676454544067383 11.55808544158936 6.100393295288086 C 11.55808544158936 3.288034439086914 9.189914703369141 1.000003814697266 6.279045104980469 1.000003814697266 M 6.279045104980469 3.814697265625e-06 C 9.746865272521973 3.814697265625e-06 12.55808544158936 2.731243133544922 12.55808544158936 6.100393295288086 C 12.55808544158936 9.46954345703125 9.746865272521973 26.53418350219727 6.279045104980469 26.53418350219727 C 2.811224937438965 26.53418350219727 -4.76837158203125e-06 9.46954345703125 -4.76837158203125e-06 6.100393295288086 C -4.76837158203125e-06 2.731243133544922 2.811224937438965 3.814697265625e-06 6.279045104980469 3.814697265625e-06 Z" stroke="none" fill="#707070"/></g></g></g></svg>