<svg xmlns="http://www.w3.org/2000/svg" width="256.976" height="201.973" viewBox="0 0 256.976 201.973">
  <g id="Group_59" data-name="Group 59" transform="translate(-280.899 -3112.027)">
    <g id="Group_48" data-name="Group 48" transform="translate(-515.252 2653.027)">
      <g id="scientist-svgrepo-com">
        <g id="Group_49" data-name="Group 49">
          <path id="Path_80" data-name="Path 80" d="M863.852,517.637v15.9a8,8,0,0,0,7.974,7.974s3.964,27.839,11.938,39.777c4.757,7.554,11.938,23.875,39.777,23.875s35.021-16.321,39.777-23.875c7.974-11.938,11.938-39.777,11.938-39.777a8,8,0,0,0,7.974-7.974v-15.9s0-7.974-7.974-7.974h0S970.927,483.974,963,476c-4.01-3.964-11.161-15-39-15-26.021,0-36,4-44,16-6,8-10.534,31.327-8.567,32.85A.851.851,0,0,0,872,510Zm51.716,12.315a11.728,11.728,0,0,1-11.938,11.514,11.938,11.938,0,1,1,11.938-11.938C915.57,529.669,915.57,529.81,915.568,529.952Zm39.82,0a11.728,11.728,0,0,1-11.938,11.514,11.938,11.938,0,1,1,11.938-11.938C955.391,529.669,955.391,529.81,955.388,529.952Z" fill="#ffd0a1" stroke="#666" stroke-miterlimit="10" stroke-width="4"/>
          <g id="Group_48-2" data-name="Group 48">
            <path id="Path_61" data-name="Path 61" d="M943.452,517.59a11.938,11.938,0,1,1-11.938,11.938,11.728,11.728,0,0,1,11.514-11.938C943.169,517.587,943.311,517.587,943.452,517.59Zm-39.823,0a11.938,11.938,0,1,1-11.938,11.938,11.728,11.728,0,0,1,11.514-11.938C903.346,517.587,903.488,517.587,903.629,517.59Z" fill="#e4f2de"/>
            <path id="Path_62" data-name="Path 62" d="M954.551,625.029l-7.135,35.813H899.665l-7.181-35.813Z" fill="#e4f2de"/>
          </g>
          <path id="Path_63" data-name="Path 63" d="M923.54,660.843a3.964,3.964,0,1,0-3.964-3.964h0a3.745,3.745,0,0,0,3.512,3.964A3.8,3.8,0,0,0,923.54,660.843Zm0-23.875A3.964,3.964,0,1,0,919.576,633h0a3.746,3.746,0,0,0,3.508,3.968,3.84,3.84,0,0,0,.456,0Z" fill="#ffe079"/>
          <path id="Path_64" data-name="Path 64" d="M955.389,621.066c55.725,0,76.009,12.357,79.6,23.875l3.964,15.9H947.415l7.181-35.813ZM812.137,644.941c3.964-11.938,15.9-23.875,79.6-23.875l.793,3.964,7.181,35.813H808.127Z" fill="#faf9f5"/>
        </g>
        <g id="Group_50" data-name="Group 50">
          <path id="Path_65" data-name="Path 65" d="M1040.911,660.049l-3.964-15.9c-2.378-7.554-15.528-25.088-80.393-25.088h-1.212c-.793,0-2.005.793-2.005,1.585l-8.023,40.207h4.2l7.37-37.828c63.652,0,74.424,17.114,76.009,22.29l4.057,15.437S1041.331,661.262,1040.911,660.049Z" fill="#51565f"/>
          <path id="Path_67" data-name="Path 67" d="M943.452,516.005a14.058,14.058,0,0,1,13.523,10.352l.14-.093a14.066,14.066,0,0,0-27-1.212c.047.047.14.047.187.093A13.814,13.814,0,0,1,943.452,516.005Z" fill="#51565f"/>
          <path id="Path_68" data-name="Path 68" d="M957.441,530.694l-.047.047a13.97,13.97,0,0,1-27.886-1.212,1.415,1.415,0,0,0-.093-.373v.373a14.037,14.037,0,0,0,28.026,1.166Z" fill="#51565f"/>
          <path id="Path_69" data-name="Path 69" d="M943.452,539.507a9.933,9.933,0,1,0-9.932-9.934h0a9.852,9.852,0,0,0,9.77,9.933Zm0-19.818a9.839,9.839,0,1,1-9.839,9.839h0a9.639,9.639,0,0,1,9.435-9.839C943.182,519.686,943.317,519.686,943.452,519.689Z" fill="#51565f"/>
          <path id="Path_70" data-name="Path 70" d="M903.628,519.595a9.933,9.933,0,1,0,9.933,9.933h0a9.852,9.852,0,0,0-9.77-9.933Zm0,19.772a9.839,9.839,0,1,1,9.839-9.839,9.64,9.64,0,0,1-9.435,9.839C903.9,539.37,903.763,539.37,903.628,539.367Z" fill="#51565f"/>
          <path id="Path_71" data-name="Path 71" d="M903.628,516.005a14.347,14.347,0,0,1,13.15,9.14c.047-.047.14-.047.187-.093a14.066,14.066,0,0,0-27,1.212l.14.093A14.1,14.1,0,0,1,903.628,516.005Z" fill="#51565f"/>
          <path id="Path_72" data-name="Path 72" d="M903.627,543.471a14.165,14.165,0,0,1-13.943-12.73l-.047-.047a14.037,14.037,0,0,0,28.026-1.166v-.373a1.093,1.093,0,0,0-.093.373A14.135,14.135,0,0,1,903.627,543.471Z" fill="#51565f"/>
          <path id="Path_73" data-name="Path 73" d="M893.7,620.645a2.7,2.7,0,0,0-2.005-1.585c-64.445,0-77.175,12.357-81.559,25.461l-2.425,15.725c0,1.212,2.053,1.761,6.436-14.56,3.591-11.145,15.528-22.663,76.009-22.663l7.05,37.949h4.409Z" fill="#51565f"/>
          <path id="Path_74" data-name="Path 74" d="M923.54,650.91c-3.171,0-5.969,2.358-5.969,5.031s2.8,5.032,5.969,5.032,5.969-2.359,5.969-5.032S926.711,650.91,923.54,650.91Zm0,6.722c-1.212,0-2.005-.668-2.005-1.69s.793-1.69,2.005-1.69,2.005.668,2.005,1.69a1.779,1.779,0,0,1-1.852,1.7C923.642,657.643,923.591,657.638,923.54,657.632Z" fill="#51565f"/>
          <path id="Path_75" data-name="Path 75" d="M923.54,627.034A5.969,5.969,0,1,0,929.509,633h0A6.137,6.137,0,0,0,923.54,627.034Zm0,7.974A2.005,2.005,0,1,1,925.545,633a1.909,1.909,0,0,1-1.808,2.005C923.671,635.011,923.606,635.011,923.54,635.008Z" fill="#51565f"/>
          <path id="Path_78" data-name="Path 78" d="M943.451,543.471a14.165,14.165,0,0,0,13.943-12.73l.047-.047,11.1-7.508a2.029,2.029,0,0,0,.793-1.585,1.45,1.45,0,0,0-.42-1.212c-.793-.793-2.005-1.212-2.8-.42l-9,6.3-.14.093a14.1,14.1,0,0,0-13.523-10.352,13.814,13.814,0,0,0-13.15,9.14c-.047-.047-.14-.047-.186-.093a14.753,14.753,0,0,0-6.575-1.119,15.026,15.026,0,0,0-6.575,1.119c-.047.047-.14.047-.186.093a14.347,14.347,0,0,0-13.15-9.14,14.058,14.058,0,0,0-13.523,10.352l-.14-.093-9-6.3c-.793-.793-2.005-.42-2.8.42a1.45,1.45,0,0,0-.42,1.212,3.011,3.011,0,0,0,.793,1.585l11.1,7.508.047.047a13.97,13.97,0,0,0,27.886-1.212,1.417,1.417,0,0,1,.093-.373c.42-.746,2.1-1.632,5.876-1.632s5.456.886,5.876,1.632a1.1,1.1,0,0,1,.093.373A14.1,14.1,0,0,0,943.451,543.471Zm0-23.875a9.933,9.933,0,1,1-9.933,9.933h0a9.852,9.852,0,0,1,9.77-9.933Zm-39.824,19.911a9.933,9.933,0,1,1,9.933-9.933h0a9.852,9.852,0,0,1-9.77,9.933Z" fill="#51565f"/>
          <path id="Line_10" data-name="Line 10" d="M917.938,549.377" fill="none" stroke="#707070" stroke-width="1"/>
        </g>
      </g>
      <path id="Path_81" data-name="Path 81" d="M931.634,544.277c5.97,2.669,12.844,1.87,19.327,1.018l18.653-2.449c13.564-1.781,27.391-3.638,39.727-9.551a144.734,144.734,0,0,1-20.546,11.756c19.106.676,38.32,1.365,57.044,5.226l-35.5,1.145c14.685,7.908,29.52,15.921,41.961,27.029l-38.266-6.892a30.408,30.408,0,0,1,13.707,5.208l-3.932.585,5.274,7.7-41.047-19.394c-18.583-8.78-38.011-18.2-58.537-17.161" fill="#603813" stroke="#603813" stroke-miterlimit="10" stroke-width="0.5"/>
      <path id="Path_84" data-name="Path 84" d="M890.231,512.1c4.185-1.648,8.448-3.315,12.932-3.66s9.307.824,12.381,4.108" transform="translate(-83.812 182.307) rotate(-11)" fill="none" stroke="#754c24" stroke-miterlimit="10" stroke-width="1"/>
      <path id="Path_85" data-name="Path 85" d="M917.645,544.954c-5.97,2.669-12.844,1.87-19.328,1.019l-18.653-2.45c-13.564-1.781-27.39-3.638-39.726-9.551a144.676,144.676,0,0,0,20.546,11.756c-19.107.676-38.32,1.365-57.045,5.227l35.5,1.144c-14.684,7.908-29.519,15.921-41.96,27.029l38.266-6.891a30.4,30.4,0,0,0-13.708,5.207l3.932.585-5.274,7.7,41.048-19.394c18.582-8.78,38.011-18.2,58.537-17.161" fill="#603813" stroke="#603813" stroke-miterlimit="10" stroke-width="0.5"/>
      <path id="Path_86" data-name="Path 86" d="M922.2,535.014c-1.657-.374-3.114,1.076-4.2,2.387-1.016,1.231-2.089,2.629-1.992,4.222a6.411,6.411,0,0,0,.912,2.537l2.294,4.331c.945,1.783,2.256,3.807,4.274,3.864,2.047.057,3.471-1.946,4.5-3.717l3.552-6.1a2.911,2.911,0,0,0,.552-1.642,2.613,2.613,0,0,0-.608-1.3,12.6,12.6,0,0,0-8.861-4.911" fill="#c1272d" stroke="#666" stroke-miterlimit="10" stroke-width="1"/>
      <path id="Path_89" data-name="Path 89" d="M886.384,569.472a50.746,50.746,0,0,1-2.816,12.221c-1.44,3.681-3.495,4.7-5.935,5.284s-5.3-2.314-6.526-5.756a38.483,38.483,0,0,1-1.951-10.814" transform="translate(31.581 5.26) rotate(-1)" fill="none" stroke="#707070" stroke-width="3"/>
      <path id="Path_91" data-name="Path 91" d="M0,.448C4.185,2.1,8.448,3.763,12.932,4.108S22.239,3.284,25.313,0" transform="translate(959.347 513.571) rotate(-169)" fill="none" stroke="#754c24" stroke-miterlimit="10" stroke-width="1"/>
    </g>
    <g id="Path_90" data-name="Path 90" transform="translate(386.284 3157.5) rotate(180)" fill="#faf9f5">
      <path d="M 10.64208984375 44.4716796875 C 9.85492992401123 44.4716796875 8.57627010345459 43.72303009033203 6.954879760742188 40.15644836425781 C 5.800439834594727 37.61700820922852 4.672679901123047 34.09189987182617 3.602919816970825 29.67902946472168 C 1.680459856987 21.74863052368164 0.4999998509883881 13.07010936737061 0.4999998509883881 10.33930015563965 C 0.4999998509883881 4.91388988494873 5.04971981048584 0.4999998509883881 10.64208984375 0.4999998509883881 C 16.23445892333984 0.4999998509883881 20.7841796875 4.91388988494873 20.7841796875 10.33930015563965 C 20.7841796875 13.07010936737061 19.60371971130371 21.74863052368164 17.68125915527344 29.67902946472168 C 16.61149978637695 34.09189987182617 15.48373985290527 37.61700820922852 14.32929992675781 40.15644836425781 C 12.70790958404541 43.72303009033203 11.42924976348877 44.4716796875 10.64208984375 44.4716796875 Z" stroke="none"/>
      <path d="M 10.64208984375 1 C 5.325419425964355 1 1 5.189590454101562 1 10.33929824829102 C 1 13.0451602935791 2.175100326538086 21.66680908203125 4.088850021362305 29.56124114990234 C 5.151199340820312 33.94356918334961 6.268619537353516 37.43869018554688 7.410059928894043 39.94952011108398 C 8.555000305175781 42.46807098388672 9.763239860534668 43.9716796875 10.64208984375 43.9716796875 C 11.52093982696533 43.9716796875 12.72917938232422 42.46807098388672 13.87411975860596 39.94952011108398 C 15.01556015014648 37.43869018554688 16.13298034667969 33.94356918334961 17.1953296661377 29.56124114990234 C 19.10907936096191 21.66680908203125 20.2841796875 13.0451602935791 20.2841796875 10.33929824829102 C 20.2841796875 5.189590454101562 15.95875930786133 1 10.64208984375 1 M 10.64208984375 0 C 16.51955032348633 0 21.2841796875 4.629058837890625 21.2841796875 10.33929824829102 C 21.2841796875 16.04953956604004 16.51955032348633 44.9716796875 10.64208984375 44.9716796875 C 4.764629364013672 44.9716796875 0 16.04953956604004 0 10.33929824829102 C 0 4.629058837890625 4.764629364013672 0 10.64208984375 0 Z" stroke="none" fill="#707070"/>
    </g>
  </g>
</svg>
