<svg xmlns="http://www.w3.org/2000/svg" width="153.182" height="133.398" viewBox="0 0 153.182 133.398">
  <path id="dna-svgrepo-com" d="M150.066,87.383H115.819L98.935,58.139l17.176-29.658a3.117,3.117,0,0,0-5.395-3.125L93.566,54.969H59.617L42.467,25.356a3.117,3.117,0,0,0-5.395,3.125L54.248,58.139,37.364,87.383H3.117a3.117,3.117,0,0,0,0,6.234H37.364l16.884,29.243L37.072,152.519a3.117,3.117,0,1,0,5.395,3.124l17.15-29.613H93.566l17.15,29.613a3.117,3.117,0,1,0,5.395-3.124L98.935,122.861l16.884-29.243h34.247a3.117,3.117,0,0,0,0-6.234ZM93.506,119.8H59.677L42.763,90.5,59.677,61.2H93.506L110.42,90.5Z" transform="translate(0 -23.801)"/>
</svg>
