<svg xmlns="http://www.w3.org/2000/svg" width="78" height="49.347" viewBox="0 0 78 49.347"><g transform="translate(0 -90)"><g transform="translate(0 90)"><g transform="translate(1.592 1.592)"><path d="M421.143,350v6.367h-9.551A1.6,1.6,0,0,1,410,354.776V350Z" transform="translate(-346.327 -310.204)" fill="#836d29"/><path d="M421.143,300v7.959H410V300Z" transform="translate(-346.327 -268.163)" fill="#836d29"/><rect width="10.829" height="8.122" transform="translate(63.833 23.841)" fill="#836d29"/><rect width="10.829" height="9.475" transform="translate(63.833 14.366)" fill="#836d29"/><path d="M421.143,150v6.367H410v-4.776A1.6,1.6,0,0,1,411.592,150Z" transform="translate(-346.327 -142.041)" fill="#836d29"/><rect width="7.671" height="6.317" transform="translate(46.236 22.939)" fill="#9cd2cb"/><rect width="7.219" height="6.317" transform="translate(39.017 22.939)" fill="#9cd2cb"/><rect width="10.378" height="5.414" transform="translate(18.261 17.524)" fill="#808285"/><path d="M135.347,175v5.571H125V175h10.347Z" transform="translate(-106.694 -163.061)" fill="#808285"/><path d="M16.367,228.184v19.1H10V225h6.367Z" transform="translate(-10 -205.102)" fill="#808285"/><path d="M182.98,139h-9.551V113.531l-7.959-7.959h-19.9v6.367H140V100h28.653l14.327,13.531V139Z" transform="translate(-119.306 -100)" fill="#50412a"/><path d="M56.367,245H82.633v6.367H96.959V245h.8v15.918H50V245Z" transform="translate(-43.633 -221.918)" fill="#695722"/></g><path d="M76.408,97.959H66.857a3.187,3.187,0,0,0-3.184,3.184v.287L52.032,90.435A1.592,1.592,0,0,0,50.939,90H22.286a1.592,1.592,0,0,0-1.592,1.592v10.347h-.8a1.592,1.592,0,0,0-1.592,1.592v9.551H9.551V111.49A1.592,1.592,0,0,0,7.959,109.9H1.592A1.592,1.592,0,0,0,0,111.49v22.286a1.592,1.592,0,0,0,1.592,1.592H7.959a1.592,1.592,0,0,0,1.592-1.592v-1.592H63.673v3.98a3.187,3.187,0,0,0,3.184,3.184h9.551A1.592,1.592,0,0,0,78,137.755v-38.2A1.592,1.592,0,0,0,76.408,97.959ZM6.367,132.184H3.184v-19.1H6.367Zm68.449-31.041v3.184H66.857v-3.184ZM66.857,125.02h7.959V129.8H66.857Zm0-3.184v-4.776h7.959v4.776Zm0-7.959V107.51h7.959v6.367Zm-24.673,5.571v-3.184h3.98v3.184Zm7.163-3.184h4.776v3.184H49.347Zm4.776-3.184H31.837v-9.551a1.592,1.592,0,0,0-1.592-1.592h-.8V98.755H47.1l7.027,7.027ZM21.49,110.694h7.163v2.388H21.49Zm7.163-5.571v2.388H21.49v-2.388Zm-19.1,11.143h3.184v9.551h3.184v-9.551H39v4.776a1.592,1.592,0,0,0,1.592,1.592H54.122V129H9.551ZM57.306,129V105.122A1.592,1.592,0,0,0,56.84,104l-7.959-7.959a1.592,1.592,0,0,0-1.126-.466h-19.9a1.592,1.592,0,0,0-1.592,1.592v4.775H23.878V93.184H50.306l13.368,12.625V129Zm9.551,7.163V132.98h7.959v3.184Z" transform="translate(0 -90)" fill="#231f20"/><rect width="3.158" height="3.158" transform="translate(59.108 32.652)" fill="#231f20"/><rect width="3.158" height="3.158" transform="translate(59.108 27.689)" fill="#231f20"/><rect width="3.158" height="3.158" transform="translate(59.108 23.177)" fill="#231f20"/><rect width="3.158" height="3.158" transform="translate(59.108 18.214)" fill="#231f20"/></g></g></svg>