<svg xmlns="http://www.w3.org/2000/svg" width="192" height="49.133" viewBox="0 0 192 49.133"><g transform="translate(-201 -14.867)"><g transform="translate(-887 -71.186)"><rect width="1.444" height="2.888" transform="translate(1114.355 117.841)" fill="#fff"/><rect width="1.444" height="2.888" transform="translate(1114.355 100.512)" fill="#fff"/><rect width="2.888" height="1.444" transform="translate(1104.968 109.899)" fill="#fff"/><rect width="2.888" height="1.444" transform="translate(1122.297 109.899)" fill="#fff"/><rect width="1.444" height="2.888" transform="translate(1119.664 116.242) rotate(-45)" fill="#fff"/><rect width="1.444" height="2.888" transform="translate(1107.412 103.985) rotate(-45)" fill="#fff"/><rect width="2.888" height="1.444" transform="translate(1107.414 117.262) rotate(-45)" fill="#fff"/><rect width="2.888" height="1.444" transform="translate(1119.667 105.007) rotate(-45)" fill="#fff"/><path d="M1127.843,124.185a16.534,16.534,0,0,1-8.659-2.968c-4.829-3.079-9.457-8.183-13.032-14.381s-5.686-12.756-5.937-18.477c-.261-5.887,1.479-10.214,4.894-12.189s8.033-1.314,13,1.855c4.829,3.079,9.457,8.183,13.032,14.381s5.686,12.756,5.937,18.477c.261,5.887-1.479,10.214-4.894,12.19A8.6,8.6,0,0,1,1127.843,124.185ZM1109.456,76.5a7.16,7.16,0,0,0-3.63.923c-2.923,1.69-4.407,5.551-4.172,10.871.241,5.491,2.281,11.818,5.746,17.815s7.922,10.931,12.556,13.884c4.493,2.863,8.579,3.51,11.5,1.825s4.408-5.551,4.172-10.871c-.241-5.491-2.282-11.818-5.746-17.815s-7.922-10.931-12.556-13.884a15.106,15.106,0,0,0-7.872-2.748Z" transform="translate(-3.57 11)" fill="#fff"/><path d="M1109.451,124.188a8.6,8.6,0,0,1-4.342-1.113c-3.415-1.971-5.155-6.3-4.894-12.19.251-5.721,2.362-12.28,5.937-18.477s8.2-11.3,13.032-14.381c4.969-3.169,9.587-3.826,13-1.855s5.155,6.3,4.894,12.19c-.251,5.721-2.361,12.28-5.937,18.477s-8.2,11.3-13.032,14.381A16.565,16.565,0,0,1,1109.451,124.188ZM1127.838,76.5a15.123,15.123,0,0,0-7.872,2.743c-4.633,2.953-9.1,7.887-12.556,13.884s-5.506,12.325-5.746,17.815c-.236,5.32,1.249,9.186,4.172,10.871s7.01,1.043,11.5-1.825c4.633-2.953,9.1-7.887,12.556-13.884s5.506-12.325,5.747-17.815c.235-5.32-1.249-9.186-4.172-10.871a7.22,7.22,0,0,0-3.63-.918Z" transform="translate(-3.57 10.998)" fill="#fff"/><path d="M1110.077,124.132c-7.155,0-13.89-1.454-18.969-4.1-5.23-2.718-8.108-6.388-8.108-10.329s2.878-7.612,8.108-10.329c5.079-2.642,11.813-4.1,18.969-4.1s13.889,1.454,18.969,4.1c5.23,2.718,8.108,6.388,8.108,10.329s-2.878,7.612-8.108,10.329C1123.966,122.678,1117.232,124.132,1110.077,124.132Zm0-27.408c-14.135,0-25.633,5.821-25.633,12.982s11.5,12.982,25.633,12.982,25.632-5.821,25.632-12.982S1124.212,96.724,1110.077,96.724Z" transform="translate(5 0.915)" fill="#fff"/><circle cx="5.415" cy="5.415" r="5.415" transform="translate(1109.661 105.206)" fill="#ff931e"/><path d="M1130.9,124.085a6.137,6.137,0,1,1,6.137-6.137,6.137,6.137,0,0,1-6.137,6.137Zm0-10.831a4.693,4.693,0,1,0,4.693,4.693A4.693,4.693,0,0,0,1130.9,113.254Z" transform="translate(-15.821 -7.326)" fill="#fff"/></g><text transform="translate(262 52)" fill="#fff" font-size="48" font-family="moonhouse"><tspan x="0" y="0">CSM</tspan></text></g></svg>