<svg xmlns="http://www.w3.org/2000/svg" width="161.825" height="44.865" viewBox="0 0 161.825 44.865"><g transform="translate(-36 -17.567)"><g transform="translate(-1052 -68.485)"><rect width="1.319" height="2.637" transform="translate(1112.065 115.08)" fill="#fff"/><rect width="1.319" height="2.637" transform="translate(1112.065 99.256)" fill="#fff"/><rect width="2.637" height="1.319" transform="translate(1103.494 107.827)" fill="#fff"/><rect width="2.637" height="1.319" transform="translate(1119.318 107.827)" fill="#fff"/><rect width="1.319" height="2.637" transform="translate(1116.913 113.619) rotate(-45)" fill="#fff"/><rect width="1.319" height="2.637" transform="translate(1105.726 102.427) rotate(-45)" fill="#fff"/><rect width="2.637" height="1.319" transform="translate(1105.728 114.551) rotate(-45)" fill="#fff"/><rect width="2.637" height="1.319" transform="translate(1116.916 103.361) rotate(-45)" fill="#fff"/><path d="M1125.441,119.917a15.1,15.1,0,0,1-7.907-2.711,38.319,38.319,0,0,1-11.9-13.131,38.37,38.37,0,0,1-5.421-16.872c-.238-5.375,1.351-9.327,4.469-11.131s7.335-1.2,11.872,1.694a38.319,38.319,0,0,1,11.9,13.131,38.371,38.371,0,0,1,5.421,16.872c.238,5.375-1.351,9.327-4.469,11.131A7.853,7.853,0,0,1,1125.441,119.917Zm-16.79-43.543a6.537,6.537,0,0,0-3.315.842c-2.669,1.543-4.025,5.069-3.809,9.926a36.987,36.987,0,0,0,5.247,16.268,37.048,37.048,0,0,0,11.465,12.678c4.1,2.614,7.834,3.205,10.5,1.667s4.025-5.069,3.809-9.926a36.992,36.992,0,0,0-5.247-16.268,37.052,37.052,0,0,0-11.465-12.678,13.793,13.793,0,0,0-7.188-2.509Z" transform="translate(-4.319 11)" fill="#fff"/><path d="M1108.646,119.92a7.853,7.853,0,0,1-3.965-1.016c-3.118-1.8-4.707-5.751-4.469-11.131a38.37,38.37,0,0,1,5.421-16.872,38.319,38.319,0,0,1,11.9-13.131c4.537-2.894,8.754-3.493,11.872-1.694s4.707,5.751,4.469,11.131a38.371,38.371,0,0,1-5.421,16.872,38.319,38.319,0,0,1-11.9,13.131A15.125,15.125,0,0,1,1108.646,119.92Zm16.79-43.543a13.809,13.809,0,0,0-7.188,2.5,37.007,37.007,0,0,0-11.465,12.678,37.047,37.047,0,0,0-5.247,16.268c-.215,4.858,1.14,8.388,3.809,9.926s6.4.952,10.5-1.667a37,37,0,0,0,11.465-12.678,37.047,37.047,0,0,0,5.247-16.268c.215-4.858-1.14-8.388-3.809-9.926a6.593,6.593,0,0,0-3.315-.838Z" transform="translate(-4.319 10.998)" fill="#fff"/><path d="M1107.725,121.625a38.339,38.339,0,0,1-17.321-3.741c-4.776-2.482-7.4-5.833-7.4-9.432s2.628-6.95,7.4-9.432a41.971,41.971,0,0,1,34.642,0c4.776,2.482,7.4,5.833,7.4,9.432s-2.628,6.95-7.4,9.432A38.339,38.339,0,0,1,1107.725,121.625Zm0-25.027c-12.907,0-23.406,5.316-23.406,11.854s10.5,11.854,23.406,11.854,23.406-5.316,23.406-11.854S1120.632,96.6,1107.725,96.6Z" transform="translate(5 0.034)" fill="#fff"/><circle cx="4.945" cy="4.945" r="4.945" transform="translate(1107.78 103.542)" fill="#ff931e"/><path d="M1130.364,123.018a5.6,5.6,0,1,1,5.6-5.6A5.6,5.6,0,0,1,1130.364,123.018Zm0-9.89a4.286,4.286,0,1,0,4.286,4.286A4.286,4.286,0,0,0,1130.364,113.129Z" transform="translate(-17.64 -8.928)" fill="#fff"/></g><text transform="translate(88.825 52.428)" fill="#fff" font-size="40" font-family="moonhouse"><tspan x="0" y="0">CSM</tspan></text></g></svg>