<svg xmlns="http://www.w3.org/2000/svg" xmlns:xlink="http://www.w3.org/1999/xlink" width="947" height="1043" viewBox="0 0 947 1043"><defs><filter id="a" x="0" y="96" width="947" height="947" filterUnits="userSpaceOnUse"><feOffset input="SourceAlpha"/><feGaussianBlur stdDeviation="40" result="b"/><feFlood flood-color="#e5dabc"/><feComposite operator="in" in2="b"/><feComposite in="SourceGraphic"/></filter><radialGradient id="c" cx="0.458" cy="0.587" r="0.5" gradientUnits="objectBoundingBox"><stop offset="0" stop-color="#fff"/><stop offset="0.085" stop-color="#ffedd8"/><stop offset="0.208" stop-color="#ffd5a7"/><stop offset="0.335" stop-color="#ffc17d"/><stop offset="0.462" stop-color="#ffb05b"/><stop offset="0.591" stop-color="#ffa340"/><stop offset="0.722" stop-color="#ff9a2d"/><stop offset="0.857" stop-color="#ff9522"/><stop offset="1" stop-color="#ff931e"/></radialGradient></defs><g transform="translate(-556 -16)"><g transform="translate(676 232.428)"><g transform="matrix(1, 0, 0, 1, -120, -216.43)" filter="url(#a)"><circle cx="353.5" cy="353.5" r="353.5" transform="translate(120 216)" fill="#ddd6c4"/></g></g><g transform="translate(1090.187 259.907)"><ellipse cx="31.493" cy="65.644" rx="31.493" ry="65.644" transform="matrix(0.43, -0.903, 0.903, 0.43, 0, 56.883)" fill="#a7a193"/></g><g transform="translate(780.767 303.262)"><path d="M809.619,451.656c-7.71-9.119,8.84-37.008,25-52.277a79.621,79.621,0,0,1,41.829-20.386c11.553-1.918,23.091-3.835,27.125,1.5,7.217,9.58-12.524,38.75-37.644,55.81C847.446,448.855,817.329,460.775,809.619,451.656Z" transform="translate(-807.668 -377.022)" fill="#a7a193"/></g><g transform="translate(922.874 356.558)"><path d="M1100.633,480.642c1.631,23.823-40.389,48.091-65.636,49.818s-47.041-16.184-48.672-40.007,30.34-44.582,55.587-46.309S1099.01,456.819,1100.633,480.642Z" transform="translate(-986.265 -444.003)" fill="#a7a193"/></g><g transform="translate(921.848 239.704)"><path d="M1116.283,304.191c.589,6.326-37.572,15.643-67.634,19.1-25.215,2.9-62.661,3.716-63.655-2.387-.979-5.984,33.141-18.54,66.551-22.343C1081.663,295.128,1115.734,298.3,1116.283,304.191Z" transform="translate(-984.974 -297.144)" fill="#797262"/></g><path d="M1085,324" transform="translate(-83.563 -62.928)" fill="#6e6b63"/><path d="M1156,394" transform="translate(-98.069 -77.229)" fill="#6e6b63"/><g transform="translate(790.737 311.904)"><path d="M822.03,451.369c-6.883-8.14,6.875-32.186,20.553-45.187,3.923-3.732,15.731-14.044,35.846-16.924,9.978-1.432,19.948-2.857,23.552,1.9,6.469,8.538-10.026,33.618-31.446,48C854.788,449.738,828.92,459.517,822.03,451.369Z" transform="translate(-820.198 -387.883)" fill="#6e6b63"/></g><g transform="translate(1089.243 268.063)"><ellipse cx="28.645" cy="65.644" rx="28.645" ry="65.644" transform="matrix(0.43, -0.903, 0.903, 0.43, 0, 51.738)" fill="#6e6b63"/></g><g transform="translate(926.169 364.005)"><path d="M1104.773,490c1.631,23.823-40.389,48.091-65.636,49.818s-47.041-16.184-48.672-40.007,30.34-44.583,55.587-46.309S1103.142,466.179,1104.773,490Z" transform="translate(-990.405 -453.363)" fill="#7b776e"/></g><g transform="translate(860.902 276.195)"><path d="M908.459,343.868a5.574,5.574,0,0,0,2.817,5.713c2.276,1.384,5.2,1.631,7.75,2.132q8.737,1.731,17.481,3.453c4.862.963,10.328,1.679,14.291,4.933,3.692,3.024,5.49,7.678,6.819,12.126,1.273,4.233,2.912,10.217-.724,13.765-1.1,1.074.589,2.761,1.687,1.687,3.358-3.278,3.2-8.235,2.292-12.492-.971-4.519-2.514-9.333-5.156-13.169-2.912-4.217-7.177-6.5-12.055-7.766-5.586-1.44-11.346-2.339-17-3.461q-5.049-1-10.1-2c-2.053-.406-6.326-1.281-5.793-4.3.263-1.5-2.037-2.14-2.307-.629Z" transform="translate(-908.38 -343.006)" fill="#ddd6c4"/></g><g transform="translate(863.958 239.708)"><path d="M948.814,361.768C920.4,329.256,923.352,333.99,920.4,329.256c-14.529-23.33,2.467.915,0,0-7.623-2.825-8.18-17.935-8.18-17.935l36.427-14.171,23.242,8.8L920.6,329.336" transform="translate(-912.22 -297.15)" fill="#c5c1b5"/></g><g transform="translate(922.455 291.029)"><path d="M999.958,398.212a101.166,101.166,0,0,1-11.9-35.695,1.21,1.21,0,0,0-1.472-.835,1.228,1.228,0,0,0-.836,1.472,103.194,103.194,0,0,0,12.134,36.268,1.2,1.2,0,0,0,2.069-1.209Z" transform="translate(-985.738 -361.649)" fill="#ddd6c4"/></g><g transform="translate(693.148 260.985)"><path d="M858.311,458.25c9.079-26.075,35.344-43.8,42.569-70.45,5.586-20.592-4.058-45.784-24.141-53q10.515-5.454,21.038-10.909c12.548,6.485,25.406,13.2,34.772,23.783s14.585,26.043,9.294,39.14c7.7,3.732,15.325-4.551,21.905-10.018,9.835-8.18,22.924-11,35.456-13.559,10.726-2.188,24.6-3.024,29.791,6.62a5.272,5.272,0,0,1,.732,3.772c-.469,1.782-2.284,2.809-3.955,3.581-18.906,8.713-40.548,8.856-60.592,14.466-43.325,12.126-77.4,52.173-82.433,96.883a72.8,72.8,0,0,0,.573,22.613c1.3,6.381,3.74,12.46,6.175,18.5q7.71,19.121,15.413,38.233c.764,1.894,1.528,4.042.716,5.912-.756,1.727-2.61,2.65-4.313,3.445-16.113,7.591-31.5,17.314-43.325,30.626s-19.876,30.523-19.86,48.33c-9.27-4.551-20.37-3.676-30.22-.565S789,663.92,779.466,667.882c-16.439,6.835-34.119,10.065-51.632,13.256-2.841.517-5.832,1.018-8.546.032-2.872-1.042-4.917-3.581-6.612-6.127-13.049-19.542-14.147-44.431-14.824-67.92-.414-14.418-.82-28.971,1.83-43.158,2-10.7,5.689-21,9.644-31.143,14.887-38.185,33.7-74.986,57.91-108.055,3.008,10.081,2.721,20.831,4.384,31.223s5.944,21.277,15.039,26.568c12.492,7.273,28.334,1.273,40.946-5.785a268.262,268.262,0,0,0,33.355-22.112" transform="translate(-697.551 -323.89)" fill="#c5c1b5"/></g><ellipse cx="12.5" cy="7" rx="12.5" ry="7" transform="translate(1037 275)" fill="#c5c1b5"/><ellipse cx="8.5" cy="9" rx="8.5" ry="9" transform="translate(892 440)" fill="#c5c1b5"/><path d="M1032.307,292l6.365-.8L1009.36,50.55l-22.59,1.575Z" transform="translate(-63.494 -7.059)" fill="#ccc"/><path d="M1231.56,300.382c30.586-20,91.075,10.2,91.075,10.2l13.057,35.814" transform="translate(-113.507 -56.704)" fill="#ddd6c4"/><g transform="translate(718.625 357.836)"><path d="M737.416,491.529a60.076,60.076,0,0,1-7.846-13.041l24.475-30.475,16.328-2.4L737.622,491.5" transform="translate(-729.57 -445.61)" fill="#c5c1b5"/></g><g transform="translate(726.128 403.501)"><path d="M739,503" transform="translate(-739 -503)" fill="#999"/></g><g transform="translate(1242.923 313.167)"><path d="M1394.068,390.059a44.935,44.935,0,0,0-5.323,26.393,46.517,46.517,0,0,0,3.477,13.113c1.758,4.177,3.923,8.164,5.92,12.238a50.91,50.91,0,0,1,4.981,14.219c.239,1.512,2.546.867,2.3-.637-1.408-8.776-6.262-16.383-9.946-24.316-3.748-8.076-5.482-16.741-4.146-25.621a42.415,42.415,0,0,1,4.79-14.179c.748-1.353-1.313-2.554-2.053-1.209Z" transform="translate(-1388.493 -389.471)" fill="#ddd6c4"/></g><g transform="translate(1242.767 324.028)"><path d="M1403.855,405.165c-2.125.835-4.416-1.138-6.374-1.758a5.143,5.143,0,0,0-6.27,2.419c-1.512,2.61-1.854,6.023-2.26,8.944a66.334,66.334,0,0,0-.645,10.431,67.029,67.029,0,0,0,1.3,11.88c.294,1.5,2.6.867,2.3-.637a64.184,64.184,0,0,1-.851-19.311,40.062,40.062,0,0,1,1.679-8.88,4.166,4.166,0,0,1,1.949-2.618,3.715,3.715,0,0,1,2.777.278c2.244.891,4.543,2.53,7.05,1.544,1.393-.541.78-2.857-.652-2.292Z" transform="translate(-1388.297 -403.12)" fill="#ddd6c4"/></g><g transform="translate(867.383 309.856)"><path d="M1331.68,426.113q-20.887-20.4-41.774-40.8a123.68,123.68,0,0,1-6.676,89.412c-3.811,7.893-8.737,15.643-16.176,20.274-4.559,2.833-9.811,4.337-15.054,5.45a122.271,122.271,0,0,1-66.082-4.352c8.506,5.2,11.832,16.351,10.559,26.234s-6.3,18.85-11.331,27.451c-18.468,31.581-40.914,64.324-75.439,76.418-14.935,5.236-31.151,6.151-45.975,11.7-28.295,10.591-48.983,39.021-50.359,69.2-.533,11.633,1.559,23.282.923,34.915s-4.663,24-14.346,30.483c-11.832,7.933-27.531,4.623-41.694,6.127-16.312,1.735-32.313,11.307-38.893,26.337s-1.488,35.074,12.938,42.9c11.593,6.286,25.852,4.01,38.655,7.161,8.235,2.029,15.794,6.294,24.062,8.188,7.543,1.727,15.381,1.408,23.115,1.082q46.584-1.969,93.175-3.931c47.725-2.013,95.642-4.05,142.58-12.89,37.549-7.074,76.084-19.59,102.119-47.558,27.372-29.4,36.57-70.952,43.214-110.569,3-17.887,5.705-35.878,6.095-54.011,1.448-66.209-27.626-128.806-56.064-188.618-5.164-10.869-12.293-23.194-24.261-24.475" transform="translate(-916.525 -385.31)" fill="#c5c1b5"/></g><ellipse cx="36.379" cy="36.53" rx="36.379" ry="36.53" transform="translate(1013.022 448.998)" fill="#c5c1b5"/><g transform="translate(746.016 459.212)"><path d="M773.444,636.181c-15.755-11.251-8.029-33.284-3.652-40.723s21.667-29.313,38.726-20.3" transform="translate(-763.994 -573.016)" fill="#a7a193"/></g><g transform="translate(755.064 461.028)"><path d="M824.407,615.641c-5.156,18.635-21.571,36.085-34.612,32.48S772.306,623.94,777.462,605.3s20.378-33.053,33.419-29.441S829.563,597.006,824.407,615.641Z" transform="translate(-775.366 -575.299)" fill="#6e6b63"/></g><path d="M.075,25.629C-2.562,14.243,65.02,44.88,71.469,28.463c3.428-8.727,18.084-11.7,30.8-15.035C131.7,5.7,132.13.294,179.126,5.851c11.172,1.317,15.679-17.766,9.629,6.691-9.422,38.087,23.918,91.169,10.8,112.152-6.681,10.691-35.6-13.813-97.6,22.708-38.661,22.772-79.616.775-79.576.974" transform="matrix(0.999, 0.052, -0.052, 0.999, 946.898, 25.21)" fill="#fff"/><g transform="translate(1003.824 71.744)"><rect width="2.292" height="4.583" transform="translate(41.821 50.441)"/><rect width="2.292" height="4.583" transform="translate(41.821 22.942)"/><rect width="4.583" height="2.292" transform="translate(26.926 37.837)"/><rect width="4.583" height="2.292" transform="translate(54.425 37.837)"/><rect width="2.292" height="4.583" transform="translate(50.246 47.903) rotate(-45)"/><rect width="2.292" height="4.583" transform="translate(30.804 28.453) rotate(-45)"/><rect width="4.583" height="2.292" transform="translate(30.808 49.522) rotate(-45)"/><rect width="4.583" height="2.292" transform="translate(50.251 30.074) rotate(-45)"/><path d="M1144.072,153.021c-4.146,0-8.84-1.583-13.742-4.71-7.662-4.886-15.007-12.986-20.68-22.82s-9.023-20.242-9.421-29.321c-.414-9.341,2.347-16.208,7.766-19.343s12.747-2.085,20.632,2.944c7.662,4.886,15.007,12.986,20.68,22.82s9.023,20.242,9.421,29.321c.414,9.341-2.347,16.208-7.766,19.343A13.648,13.648,0,0,1,1144.072,153.021Zm-29.178-75.67a11.362,11.362,0,0,0-5.761,1.464c-4.639,2.681-6.994,8.808-6.62,17.251.382,8.713,3.62,18.754,9.119,28.271s12.572,17.346,19.924,22.033c7.129,4.543,13.614,5.57,18.253,2.9s6.994-8.808,6.62-17.251c-.382-8.713-3.62-18.754-9.119-28.271s-12.572-17.346-19.924-22.033C1122.867,78.823,1118.6,77.351,1114.894,77.351Z" transform="translate(-1086.512 -75.057)"/><path d="M1114.886,153.021a13.647,13.647,0,0,1-6.891-1.766c-5.419-3.127-8.18-9.994-7.766-19.343.4-9.079,3.748-19.486,9.421-29.321s13.017-17.935,20.68-22.82c7.885-5.029,15.214-6.071,20.632-2.944s8.18,9.994,7.766,19.343c-.4,9.079-3.748,19.486-9.421,29.321s-13.017,17.935-20.68,22.82c-4.9,3.119-9.588,4.71-13.742,4.71Zm29.178-75.67c-3.7,0-7.965,1.464-12.492,4.352-7.352,4.687-14.434,12.516-19.924,22.033s-8.737,19.558-9.119,28.271c-.374,8.442,1.981,14.577,6.62,17.251s11.124,1.655,18.253-2.9c7.352-4.687,14.434-12.516,19.924-22.033s8.737-19.558,9.119-28.271c.374-8.442-1.981-14.577-6.62-17.251a11.458,11.458,0,0,0-5.761-1.456Z" transform="translate(-1086.512 -75.057)"/><path d="M1125.967,141.064c-11.354,0-22.041-2.307-30.1-6.5-8.3-4.313-12.866-10.137-12.866-16.391s4.567-12.079,12.866-16.391c8.06-4.193,18.746-6.5,30.1-6.5s22.041,2.307,30.1,6.5c8.3,4.313,12.866,10.137,12.866,16.391s-4.567,12.079-12.866,16.391C1148.008,138.756,1137.322,141.064,1125.967,141.064Zm0-43.492c-22.43,0-40.676,9.238-40.676,20.6s18.245,20.6,40.676,20.6,40.676-9.238,40.676-20.6-18.245-20.6-40.676-20.6Z" transform="translate(-1083 -79.189)"/><circle cx="8.593" cy="8.593" r="8.593" transform="translate(34.374 30.39)" fill="#ff931e"/><path d="M1134.5,131.288a9.739,9.739,0,1,1,9.739-9.739A9.749,9.749,0,0,1,1134.5,131.288Zm0-17.187a7.448,7.448,0,1,0,7.448,7.448A7.457,7.457,0,0,0,1134.5,114.1Z" transform="translate(-1091.532 -82.566)"/></g><path d="M1033.49,303.762h0L992.236,77.819,989,77Z" transform="translate(-64.677 -18.819)" fill="#7499b4"/><circle cx="21.5" cy="21.5" r="21.5" transform="translate(908 16)" fill="url(#c)"/><ellipse cx="46.948" cy="43.334" rx="46.948" ry="43.334" transform="translate(842.941 585.714)" fill="#aaa79d"/><ellipse cx="30.168" cy="36.53" rx="30.168" ry="36.53" transform="translate(1231.836 489.653) rotate(-21)" fill="#a2a09a"/></g></svg>