<svg xmlns="http://www.w3.org/2000/svg" width="305" height="301" viewBox="0 0 305 301"><g transform="translate(-1134 -1487)"><g transform="translate(1268 1631)" fill="#fff"><path d="M 6.5 12.5 C 3.191590070724487 12.5 0.5 9.808409690856934 0.5 6.5 C 0.5 3.191590070724487 3.191590070724487 0.5 6.5 0.5 C 9.808409690856934 0.5 12.5 3.191590070724487 12.5 6.5 C 12.5 9.808409690856934 9.808409690856934 12.5 6.5 12.5 Z" stroke="none"/><path d="M 6.5 1 C 3.467289924621582 1 1 3.467289924621582 1 6.5 C 1 9.532710075378418 3.467289924621582 12 6.5 12 C 9.532710075378418 12 12 9.532710075378418 12 6.5 C 12 3.467289924621582 9.532710075378418 1 6.5 1 M 6.5 0 C 10.0898494720459 0 13 2.910149574279785 13 6.5 C 13 10.0898494720459 10.0898494720459 13 6.5 13 C 2.910149574279785 13 0 10.0898494720459 0 6.5 C 0 2.910149574279785 2.910149574279785 0 6.5 0 Z" stroke="none" fill="#fff"/></g><g transform="translate(1281 1602)" fill="#fff" stroke="#fff" stroke-width="1"><circle cx="6.5" cy="6.5" r="6.5" stroke="none"/><circle cx="6.5" cy="6.5" r="6" fill="none"/></g><g transform="translate(1246 1506)" fill="#fff" stroke="#fff" stroke-width="1"><circle cx="4" cy="4" r="4" stroke="none"/><circle cx="4" cy="4" r="3.5" fill="none"/></g><g transform="translate(1431 1664)" fill="#fff" stroke="#fff" stroke-width="1"><circle cx="4" cy="4" r="4" stroke="none"/><circle cx="4" cy="4" r="3.5" fill="none"/></g><g transform="translate(1294 1575)" fill="#fff" stroke="#fff" stroke-width="1"><circle cx="6.5" cy="6.5" r="6.5" stroke="none"/><circle cx="6.5" cy="6.5" r="6" fill="none"/></g><g transform="translate(1134 1568)" fill="#fff" stroke="#fff" stroke-width="1"><circle cx="7" cy="7" r="7" stroke="none"/><circle cx="7" cy="7" r="6.5" fill="none"/></g><g transform="translate(1314 1777)" fill="#fff" stroke="#fff" stroke-width="1"><circle cx="5.5" cy="5.5" r="5.5" stroke="none"/><circle cx="5.5" cy="5.5" r="5" fill="none"/></g><line y1="84" x2="40" transform="translate(1141.5 1491.5)" fill="none" stroke="#fff" stroke-width="2"/><line y1="56" x2="26" transform="translate(1274.5 1581.5)" fill="none" stroke="#fff" stroke-width="2"/><line x1="45" y1="145" transform="translate(1274.5 1637.5)" fill="none" stroke="#fff" stroke-width="2"/><line x1="135" y1="87" transform="translate(1300.5 1581.5)" fill="none" stroke="#fff" stroke-width="2"/><line x1="133" y1="62" transform="translate(1141.5 1575.5)" fill="none" stroke="#fff" stroke-width="2"/><line x1="51" y1="72" transform="translate(1249.5 1509.5)" fill="none" stroke="#fff" stroke-width="2"/><g transform="translate(1177 1487)" fill="#fff" stroke="#fff" stroke-width="1"><circle cx="4" cy="4" r="4" stroke="none"/><circle cx="4" cy="4" r="3.5" fill="none"/></g></g></svg>