<svg xmlns="http://www.w3.org/2000/svg" width="252" height="194" viewBox="0 0 252 194">
  <path id="mircobiologist-researcher-pharmaceutical-biology-svgrepo-com" d="M103.6,6.89C119.1-.1,130.9.9,142.4,9.784a35.228,35.228,0,0,1,6.4,49.5c-11.9,15.468-33.5,17.464-49.6,6.387-20.6-14.171-28-38.72-26-55.685h0C83.2,14.076,93.8,11.281,103.6,6.89Zm126.8,173.64V160.871h-44v7.983H165.2a25.547,25.547,0,1,1,0-51.094h7l14.6,20.258-5.1,3.692,4.8,6.586,29.6-21.256-4.8-6.586-5.1,3.593L173.7,78.841l-4.2,2.994-10.3-14.27-11.1,7.983,10.3,14.27-4.1,2.994,9.5,13.173a37.458,37.458,0,0,0-34.6,27.443H104.8c-1.1-17.763-2.9-35.027-6.1-45.406-4.2-13.871-13.4-27.443-29.4-28.74-17.9-1.4-33,12.275-41.9,30.038C8,127.84,2.9,172.846,2,196.3H106s.1-9.68,0-23.551H78.8a21.722,21.722,0,0,1-21.7-21.655V117.661a3.9,3.9,0,0,1,3.9-3.892,3.967,3.967,0,0,1,3.9,3.892v33.431a13.813,13.813,0,0,0,13.8,13.771h55.7a38.026,38.026,0,0,0,27.2,15.767H133.9V196.3H254V180.63H230.4Z" transform="translate(-2 -2.298)"/>
</svg>
