<svg xmlns="http://www.w3.org/2000/svg" width="138.626" height="266.768" viewBox="0 0 138.626 266.768">
  <g id="robot-svgrepo-com" transform="translate(-117.025)">
    <path id="Path_48" data-name="Path 48" d="M202.4,113.562a13.386,13.386,0,1,0,13.386,13.386A13.4,13.4,0,0,0,202.4,113.562Zm7.413,10.649h-4.675v-4.676A7.942,7.942,0,0,1,209.814,124.211Zm-10.15-4.675v4.676h-4.676A7.938,7.938,0,0,1,199.664,119.536Zm-4.676,10.15h4.676v4.675A7.939,7.939,0,0,1,194.988,129.686Zm10.15,4.676v-4.675h4.675A7.939,7.939,0,0,1,205.139,134.361Z" transform="translate(-32.576 -51.388)"/>
    <path id="Path_49" data-name="Path 49" d="M261.308,113.562a13.386,13.386,0,1,0,13.386,13.386A13.4,13.4,0,0,0,261.308,113.562Zm0,5.475a7.916,7.916,0,0,1,7.412,5.174H253.9A7.918,7.918,0,0,1,261.308,119.037Zm0,15.822a7.916,7.916,0,0,1-7.412-5.174h14.826A7.918,7.918,0,0,1,261.308,134.859Z" transform="translate(-59.232 -51.388)"/>
    <path id="Path_50" data-name="Path 50" d="M251.465,187.93A14.216,14.216,0,0,0,244.078,184V171.6h4.106V144.111A17.932,17.932,0,0,0,230.273,126.2h-2.737v9.619h-4.83V126.2h-7.583v-3.9H233.9V94.465h-5.5V78.743a42.478,42.478,0,0,0-29.774-40.525A12.7,12.7,0,0,0,188.689,25.9V15.631a8.059,8.059,0,1,0-5.474,0V25.9a12.7,12.7,0,0,0-9.939,12.328A42.522,42.522,0,0,0,143.5,78.743V94.466H138V122.3h18.776v3.9H149.2v9.619h-4.83V126.2h-2.737a17.931,17.931,0,0,0-17.911,17.911v27.494H128.6V184a14.321,14.321,0,0,0-7.386,24.18l1.936,1.935,8.188-8.188,8.188,8.188,1.936-1.935A14.321,14.321,0,0,0,134.073,184V171.606h10.292V153.275h4.83v19.1a18.8,18.8,0,0,0,10.858,17.019v22.92a17.931,17.931,0,0,0,10.35,16.231v15.092h-2.177a20.42,20.42,0,0,0-20.4,20.4v2.737h36.66V243.633h-8.611V230.094a17.979,17.979,0,0,0,2.086.125H180.7V191.145h10.5v39.074h2.737a17.978,17.978,0,0,0,2.086-.125v13.538h-8.611v23.135h36.66v-2.737a20.42,20.42,0,0,0-20.4-20.4H201.5V228.54a17.932,17.932,0,0,0,10.35-16.231v-22.92a18.8,18.8,0,0,0,10.858-17.019v-19.1h4.83V171.6H238.6V184a14.321,14.321,0,0,0-7.387,24.18l1.936,1.935,8.188-8.188,8.188,8.188,1.936-1.935A14.334,14.334,0,0,0,251.465,187.93ZM139.217,202.064l-7.882-7.882-7.882,7.882a8.843,8.843,0,1,1,15.763,0Zm39.8,59.228H153.557a14.946,14.946,0,0,1,14.671-12.185h10.788v12.185Zm39.33,0H192.886V249.107h10.788A14.948,14.948,0,0,1,218.345,261.292ZM185.952,5.475a2.585,2.585,0,1,1-2.585,2.585A2.588,2.588,0,0,1,185.952,5.475Zm0,25.6a7.209,7.209,0,0,1,7.06,5.813,42.136,42.136,0,0,0-14.126.005A7.212,7.212,0,0,1,185.952,31.077ZM148.979,78.743a36.971,36.971,0,1,1,73.942,0V94.465H148.979Zm-5.5,38.084V99.94h84.947v16.887H143.478Zm18.776,5.475h47.394v3.9H162.253v-3.9ZM138.89,166.13h-9.7v-22.02a12.457,12.457,0,0,1,9.7-12.132v3.841h0v17.455h0Zm5.475-18.331v-6.5h4.83v6.5Zm30.862,76.642a12.457,12.457,0,0,1-9.7-12.132V191.145h9.7Zm31.146-33.3v21.163a12.457,12.457,0,0,1-9.7,12.132v-33.3Zm10.858-18.775a13.315,13.315,0,0,1-13.3,13.3h-35.96a13.315,13.315,0,0,1-13.3-13.3v-40.7h62.561v40.7Zm10.3-24.571h-4.829v-6.5h4.829Zm5.476-15.821a12.457,12.457,0,0,1,9.7,12.132v22.02h-9.7Zm16.212,70.086-7.882-7.882-7.882,7.882a8.843,8.843,0,1,1,15.763,0Z" transform="translate(0)"/>
    <path id="Path_51" data-name="Path 51" d="M223.355,246.586a23.669,23.669,0,1,0,23.669,23.669A23.7,23.7,0,0,0,223.355,246.586Zm0,41.863a18.194,18.194,0,1,1,18.194-18.194A18.215,18.215,0,0,1,223.355,288.449Z" transform="translate(-37.405 -111.582)"/>
    <path id="Path_52" data-name="Path 52" d="M231.8,265.252A13.449,13.449,0,1,0,245.251,278.7,13.464,13.464,0,0,0,231.8,265.252Zm0,21.424a7.974,7.974,0,1,1,7.974-7.974A7.983,7.983,0,0,1,231.8,286.676Z" transform="translate(-45.852 -120.029)"/>
    <path id="Path_53" data-name="Path 53" d="M240.657,284.815a2.748,2.748,0,1,0,1.933.8A2.762,2.762,0,0,0,240.657,284.815Z" transform="translate(-54.706 -128.881)"/>
  </g>
</svg>
