<svg xmlns="http://www.w3.org/2000/svg" width="262" height="249.89" viewBox="0 0 262 249.89"><g transform="translate(-36 -1523)"><g transform="translate(36 1511.167)"><g transform="translate(0 11.833)"><path d="M154.639,11.833H6.677A6.677,6.677,0,0,0,0,18.51V128.166a6.677,6.677,0,0,0,6.677,6.677H151.923l-17.579-10.914a18.671,18.671,0,0,1-3.126-2.44H13.354v-96.3H147.961V90.024a18.5,18.5,0,0,1,5.949,2.393l7.406,4.6V18.51A6.677,6.677,0,0,0,154.639,11.833Z" transform="translate(0 -11.833)"/></g><g transform="translate(102.653 73.418)"><path d="M208.921,133.285a5.136,5.136,0,0,0-6.36,8.067l22.658,17.866a18.756,18.756,0,0,1,1.1-2.064,18.472,18.472,0,0,1,5.6-5.734Z" transform="translate(-200.604 -132.182)"/></g><g transform="translate(195.555 28.216)"><g transform="translate(0 0)"><circle cx="19.219" cy="19.219" r="19.219"/></g></g><g transform="translate(134.853 72.782)"><path d="M390.334,152.774a21.993,21.993,0,0,0-21.944-21.835h-9.306l-11.517,29.869,2.41-12.14a3.868,3.868,0,0,0-.4-2.616l-3.777-6.869,3.352-6.1a1.363,1.363,0,0,0-1.194-2.02h-9.19a1.363,1.363,0,0,0-1.194,2.02l3.345,6.084-3.77,6.857a3.867,3.867,0,0,0-.394,2.667l2.783,12.115c-1.6-4.138-10.787-26.982-11.9-29.869h-9.124a21.992,21.992,0,0,0-21.945,21.835c-.05,10.012-.008,1.627-.087,17.339l-18.781-11.661a9.273,9.273,0,0,0-9.783,15.756l32.862,20.4a9.279,9.279,0,0,0,14.164-7.831c.018-3.629.149-29.582.171-33.914a1.94,1.94,0,0,1,3.881.013c-.009,44.685-.2,57.177-.2,155.872a11.128,11.128,0,0,0,22.256,0V219.807h4.8v88.945a11.128,11.128,0,0,0,22.256,0l0-155.876a1.84,1.84,0,0,1,3.68-.009l.342,68.126a9.273,9.273,0,0,0,9.272,9.226h.048a9.273,9.273,0,0,0,9.226-9.319Z" transform="translate(-263.53 -130.939)"/></g></g><text transform="translate(58 1564)" font-size="16" font-family="Montserrat-ExtraBold, Montserrat" font-weight="800"><tspan x="0" y="0">Science = fun</tspan></text></g></svg>