<?xml version="1.0" encoding="utf-8"?>
<!-- Generator: Adobe Illustrator 25.4.1, SVG Export Plug-In . SVG Version: 6.00 Build 0)  -->
<svg version="1.1" id="Layer_1" xmlns="http://www.w3.org/2000/svg" xmlns:xlink="http://www.w3.org/1999/xlink" x="0px" y="0px"
	 viewBox="0 0 987 569" style="enable-background:new 0 0 987 569;" xml:space="preserve">
<style type="text/css">
	.st0{fill:#FFFFFF;stroke:#000000;stroke-miterlimit:10;}
	.st1{stroke:#000000;stroke-miterlimit:10;}
</style>
<path class="st0" d="M-401.5,17.5"/>
<ellipse transform="matrix(0.9848 -0.1736 0.1736 0.9848 -27.0676 135.332)" class="st1" cx="759.89" cy="222.36" rx="71.56" ry="73.51"/>
<circle class="st0" cx="759.89" cy="222.36" r="41"/>
<ellipse transform="matrix(0.9848 -0.1736 0.1736 0.9848 -56.713 93.0659)" class="st1" cx="503.52" cy="370.65" rx="54.17" ry="52.08"/>
<ellipse transform="matrix(0.9848 -0.1736 0.1736 0.9848 -56.6573 93.0312)" class="st0" cx="503.35" cy="370.31" rx="26.78" ry="25.74"/>
<polygon class="st1" points="538.53,335.02 698.55,234.71 723.62,279.03 553.19,354.77 "/>
<polygon class="st1" points="465.18,364.4 285.48,306.3 303.31,258.6 470.89,340.48 "/>
<circle class="st1" cx="244.61" cy="260.42" r="73.5"/>
<ellipse transform="matrix(0.9848 -0.1736 0.1736 0.9848 -41.4464 46.4468)" class="st0" cx="244.73" cy="260.1" rx="37.67" ry="36.22"/>
</svg>
