<svg xmlns="http://www.w3.org/2000/svg" width="176" height="69" viewBox="0 0 176 69"><g transform="translate(205.061 -56.142)"><path d="M24.018,48.028a24.009,24.009,0,1,1,9.348-1.887,24.022,24.022,0,0,1-9.348,1.887Zm0-35.636a11.62,11.62,0,1,0,8.217,3.4,11.62,11.62,0,0,0-8.217-3.4Z" transform="translate(-205.069 68.85)" fill="#145e95"/><path d="M15.322,29.462A15.755,15.755,0,0,1,9.358,28.3a15.318,15.318,0,0,1-4.87-3.158A14.663,14.663,0,0,1,1.2,20.465,14.256,14.256,0,0,1,1.2,9,14.664,14.664,0,0,1,4.488,4.315a15.32,15.32,0,0,1,4.87-3.157,15.947,15.947,0,0,1,11.929,0,15.319,15.319,0,0,1,4.871,3.157A14.662,14.662,0,0,1,29.44,9a14.255,14.255,0,0,1,0,11.469,14.662,14.662,0,0,1-3.283,4.681A15.318,15.318,0,0,1,21.287,28.3a15.757,15.757,0,0,1-5.965,1.158Zm0-21.911a7.441,7.441,0,0,0-7.575,7.283,7.441,7.441,0,0,0,7.575,7.283A7.441,7.441,0,0,0,22.9,14.835a7.441,7.441,0,0,0-7.575-7.283Z" transform="translate(-123.71 56.141)" fill="#145e95"/><path d="M334.809,201.723l-49.5,20.087L280.5,208.227,331.7,195.5Z" transform="translate(-449.821 -125.715)" fill="#145e95"/><path d="M542.287,201.3,580.3,221.665l-5.888,10.107L540.06,206.5Z" transform="translate(-638.936 -127.552)" fill="#145e95"/><path d="M20.918,41.831a20.911,20.911,0,1,1,8.14-1.643,20.922,20.922,0,0,1-8.14,1.643ZM21,10.867a10.8,10.8,0,0,0-7.535,3,9.967,9.967,0,0,0,0,14.49,10.959,10.959,0,0,0,15.069,0,9.967,9.967,0,0,0,0-14.49,10.8,10.8,0,0,0-7.532-3Z" transform="translate(-70.906 83.311)" fill="#145e95"/></g></svg>