<svg xmlns="http://www.w3.org/2000/svg" width="176.333" height="69" viewBox="0 0 176.333 69"><g transform="translate(107.494 -84.422)"><path d="M-1431.149-967.441h0a18.679,18.679,0,0,1-12.067-4.487,19.336,19.336,0,0,1-4.225-5.065,19.681,19.681,0,0,1-2.347-6.462,19.615,19.615,0,0,1,.15-7.649,19.258,19.258,0,0,1,2.9-6.736,18.692,18.692,0,0,1,5.159-5.106,18.23,18.23,0,0,1,6.934-2.761,18.47,18.47,0,0,1,3.2-.281,18.683,18.683,0,0,1,12.068,4.487,19.334,19.334,0,0,1,4.225,5.065,19.681,19.681,0,0,1,2.348,6.463,19.619,19.619,0,0,1-.15,7.649,19.26,19.26,0,0,1-2.9,6.736,18.691,18.691,0,0,1-5.16,5.106,18.23,18.23,0,0,1-6.934,2.761,18.476,18.476,0,0,1-3.2.281Zm-.147-30.04a10.689,10.689,0,0,0-4.187.846,10.721,10.721,0,0,0-3.419,2.305,10.718,10.718,0,0,0-2.305,3.419,10.688,10.688,0,0,0-.846,4.187,10.689,10.689,0,0,0,.846,4.187,10.721,10.721,0,0,0,2.305,3.419,10.722,10.722,0,0,0,3.419,2.305,10.69,10.69,0,0,0,4.187.846,10.69,10.69,0,0,0,4.187-.846,10.719,10.719,0,0,0,3.419-2.305,10.726,10.726,0,0,0,2.305-3.419,10.69,10.69,0,0,0,.846-4.187,10.691,10.691,0,0,0-.846-4.187,10.724,10.724,0,0,0-2.305-3.419,10.723,10.723,0,0,0-3.419-2.305A10.693,10.693,0,0,0-1431.3-997.481Z" transform="translate(1481.342 1090.411)" fill="#145e95"/><path d="M-1437.8-980.054a14.365,14.365,0,0,1-8.979-3.134,13.505,13.505,0,0,1-3.111-3.546,13.153,13.153,0,0,1-1.7-4.534,13.13,13.13,0,0,1,.177-5.432,13.6,13.6,0,0,1,2.246-4.806,14.21,14.21,0,0,1,3.941-3.668,14.614,14.614,0,0,1,5.262-2.018,14.9,14.9,0,0,1,2.579-.227,14.365,14.365,0,0,1,8.979,3.134,13.5,13.5,0,0,1,3.111,3.546,13.148,13.148,0,0,1,1.7,4.534,13.128,13.128,0,0,1-.177,5.432,13.6,13.6,0,0,1-2.246,4.806,14.21,14.21,0,0,1-3.941,3.668,14.615,14.615,0,0,1-5.261,2.018A14.9,14.9,0,0,1-1437.8-980.054Zm.233-20.536h0a7.375,7.375,0,0,0-1.276.112,7.124,7.124,0,0,0-4.549,2.81,6.579,6.579,0,0,0-1.2,5.06,6.6,6.6,0,0,0,2.378,3.994,7.1,7.1,0,0,0,4.438,1.549,7.364,7.364,0,0,0,1.276-.112,7.127,7.127,0,0,0,4.55-2.81,6.579,6.579,0,0,0,1.2-5.06,6.6,6.6,0,0,0-2.378-3.994,7.1,7.1,0,0,0-4.437-1.548Z" transform="translate(1418.824 1133.476)" fill="#145e95"/><path d="M538.53,261.027l41.983-26.317,6.577,11.628L542.376,266.21Z" transform="translate(-546.989 -129.378)" fill="#145e95"/><path d="M332.626,286.358l-47.147-15.243,4.678-12.515,43.967,21.482Z" transform="translate(-362.2 -147.271)" fill="#145e95"/><path d="M-1436.717-973.206a19.162,19.162,0,0,1-7.506-1.515,19.219,19.219,0,0,1-6.132-4.133,19.219,19.219,0,0,1-4.133-6.132,19.167,19.167,0,0,1-1.513-7.5,19.162,19.162,0,0,1,1.516-7.506,19.215,19.215,0,0,1,4.133-6.132,19.218,19.218,0,0,1,6.132-4.132,19.16,19.16,0,0,1,7.506-1.515,19.161,19.161,0,0,1,7.507,1.515,19.218,19.218,0,0,1,6.132,4.132,19.22,19.22,0,0,1,4.133,6.132,19.167,19.167,0,0,1,1.515,7.506,19.166,19.166,0,0,1-1.515,7.506,19.22,19.22,0,0,1-4.133,6.132,19.218,19.218,0,0,1-6.132,4.132A19.16,19.16,0,0,1-1436.717-973.206Zm.171-28.881h0a10.383,10.383,0,0,0-1.795.158,10.162,10.162,0,0,0-3.658,1.4,9.881,9.881,0,0,0-2.74,2.551,9.46,9.46,0,0,0-1.562,3.343,9.128,9.128,0,0,0-.123,3.778,9.147,9.147,0,0,0,1.183,3.154,9.394,9.394,0,0,0,2.164,2.466,9.99,9.99,0,0,0,6.244,2.179,10.374,10.374,0,0,0,1.793-.158,10.162,10.162,0,0,0,3.658-1.4,9.877,9.877,0,0,0,2.74-2.551,9.455,9.455,0,0,0,1.561-3.343,9.127,9.127,0,0,0,.123-3.777,9.142,9.142,0,0,0-1.182-3.154,9.39,9.39,0,0,0-2.164-2.466,9.988,9.988,0,0,0-6.243-2.18Z" transform="translate(1348.506 1106.16)" fill="#145e95"/></g></svg>